<svg xmlns="http://www.w3.org/2000/svg" xmlns:xlink="http://www.w3.org/1999/xlink" width="1920" zoomAndPan="magnify" viewBox="0 0 1440 374.999991" height="500" preserveAspectRatio="xMidYMid meet" version="1.0"><defs><g/><clipPath id="e9055b95f7"><path d="M 1091.480469 57.859375 L 1274 57.859375 L 1274 220 L 1091.480469 220 Z M 1091.480469 57.859375 " clip-rule="nonzero"/></clipPath></defs><path fill="#ffbd59" d="M 1349.402344 291.585938 C 1354.335938 290.667969 1358.921875 288.273438 1362.523438 284.675781 C 1367.21875 279.972656 1369.859375 273.605469 1369.859375 266.960938 C 1369.859375 243.089844 1369.859375 203.652344 1369.859375 179.78125 C 1369.859375 173.136719 1367.21875 166.765625 1362.523438 162.066406 C 1357.824219 157.371094 1351.457031 154.730469 1344.8125 154.730469 C 1344.8125 154.730469 1268.855469 154.730469 1268.855469 154.730469 C 1266.207031 154.730469 1264.066406 156.878906 1264.066406 159.523438 L 1264.066406 170.199219 C 1264.066406 174.304688 1262.433594 178.238281 1259.535156 181.136719 C 1256.632812 184.035156 1252.703125 185.664062 1248.597656 185.664062 C 1248.597656 185.664062 1192.894531 185.664062 1192.894531 185.664062 C 1190.25 185.664062 1188.101562 187.8125 1188.101562 190.457031 L 1188.101562 266.960938 C 1188.101562 273.605469 1190.742188 279.972656 1195.441406 284.675781 C 1200.136719 289.371094 1206.511719 292.007812 1213.152344 292.007812 C 1213.152344 292.007812 1297.238281 292.007812 1297.238281 292.007812 C 1302.355469 302.320312 1311.386719 312.082031 1327.226562 315.902344 C 1332.972656 317.464844 1339.121094 316.121094 1343.6875 312.289062 C 1348.269531 308.453125 1350.671875 302.609375 1350.121094 296.65625 C 1349.980469 295.011719 1349.75 293.3125 1349.402344 291.585938 Z M 1349.402344 291.585938 " fill-opacity="1" fill-rule="evenodd"/><path fill="#ffbd59" d="M 1288.027344 154.730469 L 1268.855469 154.730469 C 1266.207031 154.730469 1264.066406 156.878906 1264.066406 159.523438 L 1264.066406 170.199219 C 1264.066406 174.304688 1262.433594 178.238281 1259.535156 181.136719 C 1256.632812 184.035156 1252.703125 185.664062 1248.597656 185.664062 C 1248.597656 185.664062 1192.894531 185.664062 1192.894531 185.664062 C 1190.25 185.664062 1188.101562 187.8125 1188.101562 190.457031 L 1188.101562 209.628906 L 1248.597656 209.628906 C 1259.054688 209.628906 1269.082031 205.472656 1276.476562 198.078125 C 1283.871094 190.6875 1288.027344 180.65625 1288.027344 170.199219 Z M 1288.027344 154.730469 " fill-opacity="1" fill-rule="evenodd"/><g clip-path="url(#e9055b95f7)"><path fill="#d9d9d9" d="M 1112.351562 194.824219 C 1112 196.554688 1111.773438 198.257812 1111.632812 199.898438 C 1111.082031 205.847656 1113.484375 211.695312 1118.0625 215.53125 C 1122.636719 219.363281 1128.789062 220.710938 1134.539062 219.140625 C 1150.367188 215.328125 1159.394531 205.566406 1164.511719 195.25 C 1164.511719 195.25 1248.597656 195.25 1248.597656 195.25 C 1255.242188 195.25 1261.617188 192.609375 1266.3125 187.914062 C 1271.007812 183.21875 1273.648438 176.847656 1273.648438 170.199219 C 1273.648438 146.328125 1273.648438 106.894531 1273.648438 83.019531 C 1273.648438 76.375 1271.007812 70.007812 1266.3125 65.308594 C 1261.617188 60.613281 1255.242188 57.972656 1248.597656 57.972656 C 1215.46875 57.972656 1150.070312 57.972656 1116.9375 57.972656 C 1110.296875 57.972656 1103.925781 60.613281 1099.230469 65.308594 C 1094.53125 70.007812 1091.890625 76.375 1091.890625 83.019531 C 1091.890625 106.894531 1091.890625 146.328125 1091.890625 170.199219 C 1091.890625 176.847656 1094.53125 183.21875 1099.230469 187.914062 C 1102.828125 191.519531 1107.414062 193.910156 1112.351562 194.824219 Z M 1112.351562 194.824219 " fill-opacity="1" fill-rule="evenodd"/></g><path fill="#504f6e" d="M 1177.515625 129.304688 L 1177.582031 128.769531 C 1177.582031 126.835938 1178.132812 125.308594 1179.234375 124.1875 C 1180.332031 123.066406 1181.535156 122.324219 1182.835938 121.964844 C 1184.140625 121.605469 1185.34375 121 1186.441406 120.148438 C 1187.542969 119.292969 1188.089844 118.140625 1188.089844 116.675781 C 1188.089844 115.21875 1187.675781 114.085938 1186.84375 113.277344 C 1186.011719 112.46875 1184.765625 112.066406 1183.109375 112.066406 C 1181.445312 112.066406 1180.222656 112.324219 1179.4375 112.84375 C 1178.652344 113.355469 1178.167969 113.882812 1177.992188 114.425781 L 1177.789062 115.230469 C 1177.382812 116.398438 1176.910156 117.285156 1176.371094 117.890625 C 1175.832031 118.5 1175.140625 118.800781 1174.285156 118.800781 C 1173.433594 118.800781 1172.3125 118.53125 1170.917969 117.988281 C 1168.222656 116.960938 1166.875 115.679688 1166.875 114.15625 C 1166.875 113.480469 1167.011719 112.796875 1167.285156 112.101562 C 1167.550781 111.40625 1167.777344 110.820312 1167.953125 110.351562 C 1168.136719 109.875 1168.617188 109.058594 1169.402344 107.890625 C 1170.1875 106.722656 1171.085938 105.703125 1172.09375 104.828125 C 1173.105469 103.953125 1174.53125 103.144531 1176.371094 102.40625 C 1178.214844 101.660156 1180.257812 101.292969 1182.5 101.292969 C 1187.257812 101.292969 1191.140625 102.816406 1194.152344 105.871094 C 1197.15625 108.921875 1198.660156 112.46875 1198.660156 116.507812 C 1198.660156 118.441406 1198.316406 120.222656 1197.617188 121.863281 C 1196.921875 123.5 1196.082031 124.796875 1195.09375 125.734375 C 1193.117188 127.625 1191.273438 128.878906 1189.570312 129.507812 L 1188.496094 129.84375 C 1188.496094 130.609375 1188.460938 131.1875 1188.390625 131.597656 C 1188.324219 132 1188.121094 132.433594 1187.785156 132.910156 C 1187.449219 133.378906 1186.890625 133.714844 1186.105469 133.914062 C 1185.316406 134.121094 1184.273438 134.222656 1182.96875 134.222656 C 1181.671875 134.222656 1180.625 134.109375 1179.839844 133.882812 C 1179.054688 133.660156 1178.503906 133.277344 1178.191406 132.738281 C 1177.875 132.199219 1177.683594 131.714844 1177.617188 131.289062 C 1177.550781 130.863281 1177.515625 130.203125 1177.515625 129.304688 Z M 1177.246094 141.324219 C 1177.605469 140.628906 1178.25 140.121094 1179.167969 139.8125 C 1180.089844 139.496094 1181.535156 139.335938 1183.511719 139.335938 C 1185.484375 139.335938 1186.910156 139.777344 1187.785156 140.648438 C 1188.664062 141.527344 1189.097656 143.222656 1189.097656 145.734375 C 1189.097656 147.53125 1188.875 148.867188 1188.429688 149.742188 C 1187.976562 150.617188 1187.292969 151.203125 1186.371094 151.496094 C 1185.453125 151.78125 1184.027344 151.929688 1182.097656 151.929688 C 1180.167969 151.929688 1178.683594 151.460938 1177.648438 150.515625 C 1176.886719 149.753906 1176.507812 148.453125 1176.507812 146.613281 L 1176.507812 145.53125 C 1176.507812 144.503906 1176.542969 143.714844 1176.609375 143.175781 C 1176.675781 142.636719 1176.886719 142.019531 1177.246094 141.324219 Z M 1177.246094 141.324219 " fill-opacity="1" fill-rule="nonzero"/><path fill="#d9d9d9" d="M 1284.605469 238.355469 C 1284.15625 237.476562 1283.46875 236.882812 1282.550781 236.566406 C 1281.628906 236.257812 1280.195312 236.097656 1278.242188 236.097656 C 1276.289062 236.097656 1274.875 236.523438 1274 237.378906 C 1273.121094 238.230469 1272.6875 239.578125 1272.6875 241.417969 L 1272.6875 242.496094 C 1272.6875 243.574219 1272.71875 244.371094 1272.785156 244.882812 C 1272.855469 245.398438 1273.070312 246.019531 1273.429688 246.738281 C 1274.144531 248.042969 1275.863281 248.6875 1278.578125 248.6875 C 1281.292969 248.6875 1283.089844 248.25 1283.964844 247.375 C 1284.839844 246.503906 1285.277344 244.804688 1285.277344 242.292969 C 1285.277344 240.539062 1285.054688 239.226562 1284.605469 238.355469 Z M 1275.582031 230.511719 C 1276.433594 230.734375 1277.578125 230.84375 1279.015625 230.84375 C 1280.457031 230.84375 1281.597656 230.734375 1282.449219 230.511719 C 1283.300781 230.285156 1283.894531 229.882812 1284.238281 229.296875 C 1284.570312 228.710938 1284.773438 228.195312 1284.839844 227.75 C 1284.90625 227.300781 1284.941406 226.605469 1284.941406 225.660156 L 1284.941406 204.3125 C 1284.941406 203.371094 1284.90625 202.664062 1284.839844 202.191406 C 1284.773438 201.722656 1284.5625 201.195312 1284.203125 200.609375 C 1283.84375 200.023438 1283.234375 199.613281 1282.382812 199.363281 C 1281.527344 199.117188 1280.382812 198.992188 1278.949219 198.992188 C 1277.511719 198.992188 1276.367188 199.117188 1275.515625 199.363281 C 1274.660156 199.613281 1274.066406 200.039062 1273.730469 200.644531 C 1273.394531 201.25 1273.191406 201.789062 1273.121094 202.257812 C 1273.054688 202.730469 1273.023438 203.4375 1273.023438 204.378906 L 1273.023438 225.726562 C 1273.023438 226.671875 1273.054688 227.367188 1273.121094 227.816406 C 1273.191406 228.261719 1273.40625 228.769531 1273.765625 229.332031 C 1274.125 229.890625 1274.726562 230.285156 1275.582031 230.511719 Z M 1275.582031 230.511719 " fill-opacity="1" fill-rule="nonzero"/><path fill="#d9d9d9" d="M 1274.847656 199.617188 C 1274.507812 199.921875 1274.15625 200.226562 1273.804688 200.519531 C 1274.046875 200.144531 1274.390625 199.84375 1274.847656 199.617188 Z M 1274.847656 199.617188 " fill-opacity="1" fill-rule="evenodd"/><g fill="#000000" fill-opacity="1"><g transform="translate(69.718388, 175.499988)"><g><path d="M 4.539062 0 L 4.539062 -74.917969 L 22.929688 -74.917969 L 22.929688 0 Z M 13.734375 -26.675781 L 13.734375 -41.660156 L 51.875 -41.660156 L 51.875 -26.675781 Z M 13.734375 -59.59375 L 13.734375 -74.917969 L 55.734375 -74.917969 L 55.734375 -59.59375 Z M 13.734375 -59.59375 "/></g></g></g><g fill="#000000" fill-opacity="1"><g transform="translate(127.607396, 175.499988)"><g><path d="M 4.085938 0 L 4.085938 -59.933594 L 19.976562 -59.933594 L 19.976562 -36.097656 L 20.886719 -36.097656 C 21.339844 -42.453125 22.230469 -47.46875 23.554688 -51.136719 C 24.878906 -54.808594 26.542969 -57.417969 28.546875 -58.96875 C 30.554688 -60.519531 32.804688 -61.296875 35.300781 -61.296875 C 36.664062 -61.296875 38.082031 -61.109375 39.558594 -60.730469 C 41.035156 -60.351562 42.492188 -59.746094 43.929688 -58.914062 L 43.019531 -38.480469 C 41.355469 -39.464844 39.730469 -40.203125 38.140625 -40.695312 C 36.550781 -41.1875 35.039062 -41.433594 33.601562 -41.433594 C 31.179688 -41.433594 29.136719 -40.75 27.46875 -39.390625 C 25.804688 -38.027344 24.539062 -36.019531 23.667969 -33.371094 C 22.796875 -30.722656 22.363281 -27.507812 22.363281 -23.722656 L 22.363281 0 Z M 4.085938 0 "/></g></g></g><g fill="#000000" fill-opacity="1"><g transform="translate(173.010546, 175.499988)"><g><path d="M 32.578125 1.589844 C 26.902344 1.589844 22.152344 0.777344 18.332031 -0.851562 C 14.511719 -2.476562 11.425781 -4.710938 9.082031 -7.546875 C 6.734375 -10.386719 5.050781 -13.621094 4.03125 -17.253906 C 3.007812 -20.886719 2.496094 -24.707031 2.496094 -28.71875 C 2.496094 -33.03125 3.046875 -37.15625 4.144531 -41.089844 C 5.242188 -45.027344 6.941406 -48.527344 9.25 -51.589844 C 11.558594 -54.65625 14.546875 -57.078125 18.21875 -58.855469 C 21.890625 -60.632812 26.296875 -61.523438 31.441406 -61.523438 C 36.589844 -61.523438 40.996094 -60.632812 44.667969 -58.855469 C 48.335938 -57.078125 51.269531 -54.597656 53.464844 -51.421875 C 55.660156 -48.242188 57.078125 -44.574219 57.722656 -40.410156 C 58.363281 -36.25 58.269531 -31.746094 57.4375 -26.902344 L 13.960938 -26.222656 L 13.960938 -36.210938 L 43.363281 -36.777344 L 40.976562 -30.988281 C 41.433594 -34.46875 41.375 -37.402344 40.808594 -39.785156 C 40.238281 -42.167969 39.199219 -43.984375 37.6875 -45.234375 C 36.171875 -46.484375 34.089844 -47.109375 31.441406 -47.109375 C 28.644531 -47.109375 26.410156 -46.390625 24.746094 -44.949219 C 23.082031 -43.511719 21.90625 -41.488281 21.226562 -38.878906 C 20.546875 -36.265625 20.207031 -33.183594 20.207031 -29.625 C 20.207031 -23.496094 21.226562 -19.03125 23.269531 -16.230469 C 25.3125 -13.433594 28.453125 -12.03125 32.691406 -12.03125 C 34.507812 -12.03125 36.019531 -12.257812 37.230469 -12.714844 C 38.441406 -13.167969 39.425781 -13.828125 40.183594 -14.699219 C 40.941406 -15.570312 41.46875 -16.628906 41.773438 -17.878906 C 42.074219 -19.125 42.1875 -20.546875 42.113281 -22.136719 L 58.914062 -21.226562 C 59.140625 -18.730469 58.894531 -16.15625 58.175781 -13.507812 C 57.457031 -10.859375 56.113281 -8.398438 54.144531 -6.128906 C 52.179688 -3.859375 49.433594 -2.003906 45.914062 -0.566406 C 42.398438 0.871094 37.949219 1.589844 32.578125 1.589844 Z M 32.578125 1.589844 "/></g></g></g><g fill="#000000" fill-opacity="1"><g transform="translate(233.964269, 175.499988)"><g><path d="M 42.679688 16.800781 L 42.679688 2.042969 C 42.679688 -0.0742188 42.773438 -2.289062 42.964844 -4.597656 C 43.152344 -6.90625 43.417969 -9.25 43.757812 -11.636719 C 44.097656 -14.019531 44.421875 -16.308594 44.722656 -18.503906 L 43.703125 -18.503906 C 43.019531 -13.886719 41.808594 -10.101562 40.070312 -7.152344 C 38.328125 -4.199219 36.152344 -2.003906 33.542969 -0.566406 C 30.933594 0.871094 27.925781 1.589844 24.519531 1.589844 C 20.355469 1.589844 16.609375 0.472656 13.28125 -1.757812 C 9.953125 -3.992188 7.320312 -7.453125 5.390625 -12.144531 C 3.460938 -16.835938 2.496094 -22.855469 2.496094 -30.195312 C 2.496094 -37.003906 3.347656 -42.738281 5.050781 -47.390625 C 6.753906 -52.046875 9.25 -55.5625 12.542969 -57.949219 C 15.835938 -60.332031 19.828125 -61.523438 24.519531 -61.523438 C 28.226562 -61.523438 31.386719 -60.785156 33.996094 -59.308594 C 36.609375 -57.835938 38.746094 -55.601562 40.410156 -52.613281 C 42.074219 -49.625 43.324219 -45.898438 44.15625 -41.433594 L 44.835938 -41.433594 L 44.835938 -59.933594 L 61.070312 -59.933594 L 61.070312 16.800781 Z M 31.441406 -13.507812 C 32.503906 -13.507812 33.5625 -13.679688 34.621094 -14.019531 C 35.679688 -14.359375 36.703125 -14.90625 37.6875 -15.664062 C 38.671875 -16.421875 39.558594 -17.386719 40.355469 -18.558594 C 41.148438 -19.730469 41.773438 -21.171875 42.226562 -22.871094 C 42.679688 -24.574219 42.90625 -26.5625 42.90625 -28.832031 L 42.90625 -29.511719 C 42.90625 -32.390625 42.585938 -34.847656 41.941406 -36.890625 C 41.300781 -38.933594 40.449219 -40.617188 39.390625 -41.941406 C 38.328125 -43.265625 37.117188 -44.25 35.757812 -44.894531 C 34.394531 -45.539062 32.996094 -45.859375 31.554688 -45.859375 C 29.285156 -45.859375 27.375 -45.121094 25.824219 -43.644531 C 24.273438 -42.167969 23.101562 -40.203125 22.304688 -37.742188 C 21.511719 -35.285156 21.113281 -32.539062 21.113281 -29.511719 C 21.113281 -26.789062 21.472656 -24.195312 22.191406 -21.738281 C 22.910156 -19.277344 24.027344 -17.292969 25.539062 -15.777344 C 27.054688 -14.265625 29.019531 -13.507812 31.441406 -13.507812 Z M 31.441406 -13.507812 "/></g></g></g><g fill="#000000" fill-opacity="1"><g transform="translate(299.11778, 175.499988)"><g><path d="M 22.703125 1.589844 C 16.195312 1.589844 11.371094 -0.679688 8.230469 -5.222656 C 5.089844 -9.761719 3.519531 -16.722656 3.519531 -26.109375 L 3.519531 -59.933594 L 21.90625 -59.933594 L 21.90625 -26.335938 C 21.90625 -21.945312 22.53125 -18.882812 23.78125 -17.140625 C 25.03125 -15.398438 26.828125 -14.53125 29.171875 -14.53125 C 30.835938 -14.53125 32.371094 -14.964844 33.769531 -15.835938 C 35.171875 -16.707031 36.398438 -18.03125 37.460938 -19.808594 C 38.519531 -21.585938 39.332031 -23.875 39.898438 -26.675781 C 40.46875 -29.476562 40.75 -32.84375 40.75 -36.777344 L 40.75 -59.933594 L 59.140625 -59.933594 L 59.140625 0 L 43.476562 0 L 43.476562 -23.382812 L 42.679688 -23.382812 C 42.226562 -17.554688 41.203125 -12.808594 39.617188 -9.136719 C 38.027344 -5.46875 35.832031 -2.761719 33.03125 -1.023438 C 30.230469 0.71875 26.789062 1.589844 22.703125 1.589844 Z M 22.703125 1.589844 "/></g></g></g><g fill="#000000" fill-opacity="1"><g transform="translate(362.341645, 175.499988)"><g><path d="M 32.578125 1.589844 C 26.902344 1.589844 22.152344 0.777344 18.332031 -0.851562 C 14.511719 -2.476562 11.425781 -4.710938 9.082031 -7.546875 C 6.734375 -10.386719 5.050781 -13.621094 4.03125 -17.253906 C 3.007812 -20.886719 2.496094 -24.707031 2.496094 -28.71875 C 2.496094 -33.03125 3.046875 -37.15625 4.144531 -41.089844 C 5.242188 -45.027344 6.941406 -48.527344 9.25 -51.589844 C 11.558594 -54.65625 14.546875 -57.078125 18.21875 -58.855469 C 21.890625 -60.632812 26.296875 -61.523438 31.441406 -61.523438 C 36.589844 -61.523438 40.996094 -60.632812 44.667969 -58.855469 C 48.335938 -57.078125 51.269531 -54.597656 53.464844 -51.421875 C 55.660156 -48.242188 57.078125 -44.574219 57.722656 -40.410156 C 58.363281 -36.25 58.269531 -31.746094 57.4375 -26.902344 L 13.960938 -26.222656 L 13.960938 -36.210938 L 43.363281 -36.777344 L 40.976562 -30.988281 C 41.433594 -34.46875 41.375 -37.402344 40.808594 -39.785156 C 40.238281 -42.167969 39.199219 -43.984375 37.6875 -45.234375 C 36.171875 -46.484375 34.089844 -47.109375 31.441406 -47.109375 C 28.644531 -47.109375 26.410156 -46.390625 24.746094 -44.949219 C 23.082031 -43.511719 21.90625 -41.488281 21.226562 -38.878906 C 20.546875 -36.265625 20.207031 -33.183594 20.207031 -29.625 C 20.207031 -23.496094 21.226562 -19.03125 23.269531 -16.230469 C 25.3125 -13.433594 28.453125 -12.03125 32.691406 -12.03125 C 34.507812 -12.03125 36.019531 -12.257812 37.230469 -12.714844 C 38.441406 -13.167969 39.425781 -13.828125 40.183594 -14.699219 C 40.941406 -15.570312 41.46875 -16.628906 41.773438 -17.878906 C 42.074219 -19.125 42.1875 -20.546875 42.113281 -22.136719 L 58.914062 -21.226562 C 59.140625 -18.730469 58.894531 -16.15625 58.175781 -13.507812 C 57.457031 -10.859375 56.113281 -8.398438 54.144531 -6.128906 C 52.179688 -3.859375 49.433594 -2.003906 45.914062 -0.566406 C 42.398438 0.871094 37.949219 1.589844 32.578125 1.589844 Z M 32.578125 1.589844 "/></g></g></g><g fill="#000000" fill-opacity="1"><g transform="translate(423.295368, 175.499988)"><g><path d="M 4.085938 0 L 4.085938 -59.933594 L 19.636719 -59.933594 L 19.636719 -35.53125 L 20.546875 -35.53125 C 21 -41.433594 21.984375 -46.292969 23.496094 -50.117188 C 25.011719 -53.9375 27.167969 -56.792969 29.96875 -58.6875 C 32.765625 -60.578125 36.324219 -61.523438 40.636719 -61.523438 C 47.144531 -61.523438 52.046875 -59.367188 55.335938 -55.054688 C 58.628906 -50.738281 60.273438 -44.308594 60.273438 -35.757812 L 60.273438 0 L 41.886719 0 L 41.886719 -33.371094 C 41.886719 -37.460938 41.261719 -40.523438 40.011719 -42.566406 C 38.765625 -44.609375 36.777344 -45.632812 34.054688 -45.632812 C 31.785156 -45.632812 29.777344 -44.835938 28.039062 -43.25 C 26.296875 -41.660156 24.933594 -39.085938 23.949219 -35.53125 C 22.96875 -31.972656 22.476562 -27.207031 22.476562 -21.226562 L 22.476562 0 Z M 4.085938 0 "/></g></g></g><g fill="#000000" fill-opacity="1"><g transform="translate(487.086769, 175.499988)"><g><path d="M 28.039062 1.363281 C 21 1.363281 15.757812 -0.433594 12.316406 -4.03125 C 8.871094 -7.625 7.152344 -13.207031 7.152344 -20.773438 L 7.152344 -45.632812 L 0.566406 -45.632812 L 0.566406 -57.210938 L 0.90625 -57.210938 C 5.601562 -57.816406 8.929688 -59.386719 10.898438 -61.921875 C 12.863281 -64.457031 14.074219 -68.296875 14.53125 -73.441406 L 14.53125 -73.667969 L 25.3125 -73.667969 L 25.3125 -59.933594 L 39.046875 -59.933594 L 39.046875 -45.179688 L 25.3125 -45.179688 L 25.3125 -22.476562 C 25.3125 -19.601562 26.011719 -17.554688 27.414062 -16.347656 C 28.8125 -15.136719 30.535156 -14.53125 32.578125 -14.53125 C 33.636719 -14.53125 34.734375 -14.679688 35.871094 -14.984375 C 37.003906 -15.285156 38.066406 -15.703125 39.046875 -16.230469 L 39.046875 -0.226562 C 36.703125 0.453125 34.621094 0.890625 32.804688 1.078125 C 30.988281 1.265625 29.398438 1.363281 28.039062 1.363281 Z M 28.039062 1.363281 "/></g></g></g><g fill="#000000" fill-opacity="1"><g transform="translate(528.857655, 175.499988)"><g><path d="M 4.085938 -79.457031 L 22.476562 -79.457031 L 22.476562 0 L 4.085938 0 Z M 4.085938 -79.457031 "/></g></g></g><g fill="#000000" fill-opacity="1"><g transform="translate(555.418521, 175.499988)"><g><path d="M 25.539062 17.707031 C 23.269531 17.707031 20.773438 17.519531 18.046875 17.140625 C 15.324219 16.761719 12.601562 16.15625 9.875 15.324219 C 7.152344 14.492188 4.617188 13.433594 2.269531 12.144531 L 6.46875 -6.355469 C 9.195312 -3.785156 12.242188 -1.96875 15.609375 -0.90625 C 18.976562 0.152344 21.984375 0.679688 24.632812 0.679688 C 28.339844 0.679688 31.460938 -0.0585938 33.996094 -1.53125 C 36.53125 -3.007812 38.441406 -5.164062 39.730469 -8.003906 C 41.015625 -10.839844 41.660156 -14.300781 41.660156 -18.390625 L 41.660156 -28.832031 L 40.636719 -28.832031 C 40.484375 -23.535156 39.636719 -19.203125 38.082031 -15.835938 C 36.53125 -12.46875 34.433594 -9.988281 31.785156 -8.398438 C 29.136719 -6.8125 26.070312 -6.015625 22.589844 -6.015625 C 18.277344 -6.015625 14.699219 -7.113281 11.863281 -9.308594 C 9.023438 -11.503906 6.886719 -14.792969 5.449219 -19.183594 C 4.011719 -23.574219 3.292969 -29.058594 3.292969 -35.644531 L 3.292969 -59.933594 L 21.566406 -59.933594 L 21.566406 -40.410156 C 21.566406 -33.976562 22.25 -29.285156 23.609375 -26.335938 C 24.972656 -23.382812 27.128906 -21.90625 30.082031 -21.90625 C 31.59375 -21.90625 32.9375 -22.304688 34.109375 -23.101562 C 35.285156 -23.894531 36.25 -25.105469 37.003906 -26.730469 C 37.761719 -28.359375 38.328125 -30.402344 38.707031 -32.863281 C 39.085938 -35.320312 39.273438 -38.179688 39.273438 -41.433594 L 39.273438 -59.933594 L 57.550781 -59.933594 L 57.550781 -17.707031 C 57.550781 -13.621094 57.132812 -9.78125 56.300781 -6.1875 C 55.46875 -2.59375 54.222656 0.664062 52.554688 3.574219 C 50.890625 6.488281 48.792969 9.003906 46.257812 11.125 C 43.722656 13.242188 40.730469 14.871094 37.289062 16.003906 C 33.84375 17.140625 29.929688 17.707031 25.539062 17.707031 Z M 25.539062 17.707031 "/></g></g></g><g fill="#000000" fill-opacity="1"><g transform="translate(616.599273, 175.499988)"><g/></g></g><g fill="#000000" fill-opacity="1"><g transform="translate(639.641355, 175.499988)"><g><path d="M 0.453125 0 L 25.539062 -74.917969 L 49.378906 -74.917969 L 74.351562 0 L 54.484375 0 L 37.6875 -60.046875 L 37.003906 -60.046875 L 20.089844 0 Z M 14.644531 -13.28125 L 14.644531 -26.222656 L 62.433594 -26.222656 L 62.433594 -13.28125 Z M 14.644531 -13.28125 "/></g></g></g><g fill="#000000" fill-opacity="1"><g transform="translate(714.443047, 175.499988)"><g><path d="M 30.308594 1.589844 C 26.296875 1.589844 22.570312 1.191406 19.125 0.398438 C 15.683594 -0.398438 12.695312 -1.664062 10.160156 -3.40625 C 7.625 -5.144531 5.695312 -7.472656 4.371094 -10.386719 C 3.046875 -13.300781 2.496094 -16.835938 2.722656 -21 L 18.730469 -22.363281 C 18.882812 -19.863281 19.449219 -17.800781 20.433594 -16.175781 C 21.417969 -14.546875 22.777344 -13.355469 24.519531 -12.601562 C 26.257812 -11.84375 28.378906 -11.464844 30.875 -11.464844 C 33.222656 -11.464844 35.246094 -11.863281 36.949219 -12.65625 C 38.652344 -13.453125 39.503906 -14.792969 39.503906 -16.6875 C 39.503906 -17.671875 39.199219 -18.484375 38.59375 -19.125 C 37.988281 -19.769531 36.871094 -20.375 35.246094 -20.941406 C 33.617188 -21.511719 31.253906 -22.171875 28.152344 -22.929688 C 24.292969 -23.914062 20.8125 -24.898438 17.707031 -25.878906 C 14.605469 -26.863281 11.957031 -28.039062 9.761719 -29.398438 C 7.566406 -30.761719 5.902344 -32.445312 4.765625 -34.449219 C 3.632812 -36.457031 3.066406 -38.933594 3.066406 -41.886719 C 3.066406 -46.046875 4.179688 -49.585938 6.414062 -52.5 C 8.644531 -55.414062 11.730469 -57.644531 15.664062 -59.195312 C 19.601562 -60.75 24.140625 -61.523438 29.285156 -61.523438 C 33.902344 -61.523438 38.214844 -60.804688 42.226562 -59.367188 C 46.238281 -57.929688 49.398438 -55.582031 51.703125 -52.328125 C 54.011719 -49.074219 54.863281 -44.761719 54.257812 -39.390625 L 38.59375 -37.914062 C 38.820312 -40.109375 38.519531 -41.980469 37.6875 -43.53125 C 36.855469 -45.082031 35.644531 -46.257812 34.054688 -47.050781 C 32.464844 -47.84375 30.535156 -48.242188 28.265625 -48.242188 C 25.691406 -48.242188 23.707031 -47.769531 22.304688 -46.824219 C 20.90625 -45.878906 20.207031 -44.6875 20.207031 -43.25 C 20.207031 -42.113281 20.640625 -41.148438 21.511719 -40.355469 C 22.382812 -39.558594 23.742188 -38.878906 25.597656 -38.308594 C 27.449219 -37.742188 29.855469 -37.117188 32.804688 -36.4375 C 35.378906 -35.90625 38.066406 -35.226562 40.863281 -34.394531 C 43.664062 -33.5625 46.273438 -32.445312 48.695312 -31.046875 C 51.117188 -29.644531 53.085938 -27.8125 54.597656 -25.539062 C 56.113281 -23.269531 56.871094 -20.394531 56.871094 -16.914062 C 56.871094 -13.207031 55.847656 -9.953125 53.804688 -7.152344 C 51.761719 -4.351562 48.773438 -2.195312 44.835938 -0.679688 C 40.902344 0.832031 36.058594 1.589844 30.308594 1.589844 Z M 30.308594 1.589844 "/></g></g></g><g fill="#000000" fill-opacity="1"><g transform="translate(773.126606, 175.499988)"><g><path d="M 4.085938 0 L 4.085938 -79.457031 L 22.019531 -79.457031 L 22.019531 -37.34375 C 24.59375 -38.707031 26.808594 -40.257812 28.660156 -42 C 30.515625 -43.738281 32.085938 -45.613281 33.371094 -47.617188 C 34.660156 -49.625 35.699219 -51.667969 36.496094 -53.75 C 37.289062 -55.828125 37.949219 -57.890625 38.480469 -59.933594 L 59.59375 -59.933594 C 58.761719 -56.90625 57.570312 -53.976562 56.019531 -51.136719 C 54.46875 -48.300781 52.554688 -45.652344 50.285156 -43.191406 C 48.015625 -40.730469 45.386719 -38.519531 42.398438 -36.550781 C 39.40625 -34.582031 36.097656 -32.957031 32.464844 -31.671875 L 32.464844 -30.761719 C 37.15625 -31.519531 40.996094 -31.613281 43.984375 -31.046875 C 46.976562 -30.476562 49.339844 -29.417969 51.082031 -27.867188 C 52.820312 -26.316406 54.164062 -24.367188 55.109375 -22.019531 C 56.054688 -19.675781 56.792969 -17.066406 57.324219 -14.1875 L 59.933594 0 L 40.070312 0 L 38.820312 -9.988281 C 38.519531 -12.410156 38.101562 -14.679688 37.574219 -16.800781 C 37.042969 -18.917969 36.019531 -20.640625 34.507812 -21.964844 C 32.996094 -23.289062 30.609375 -23.949219 27.355469 -23.949219 L 22.019531 -23.949219 L 22.019531 0 Z M 4.085938 0 "/></g></g></g><g fill="#000000" fill-opacity="1"><g transform="translate(834.534363, 175.499988)"><g><path d="M 32.578125 1.589844 C 26.902344 1.589844 22.152344 0.777344 18.332031 -0.851562 C 14.511719 -2.476562 11.425781 -4.710938 9.082031 -7.546875 C 6.734375 -10.386719 5.050781 -13.621094 4.03125 -17.253906 C 3.007812 -20.886719 2.496094 -24.707031 2.496094 -28.71875 C 2.496094 -33.03125 3.046875 -37.15625 4.144531 -41.089844 C 5.242188 -45.027344 6.941406 -48.527344 9.25 -51.589844 C 11.558594 -54.65625 14.546875 -57.078125 18.21875 -58.855469 C 21.890625 -60.632812 26.296875 -61.523438 31.441406 -61.523438 C 36.589844 -61.523438 40.996094 -60.632812 44.667969 -58.855469 C 48.335938 -57.078125 51.269531 -54.597656 53.464844 -51.421875 C 55.660156 -48.242188 57.078125 -44.574219 57.722656 -40.410156 C 58.363281 -36.25 58.269531 -31.746094 57.4375 -26.902344 L 13.960938 -26.222656 L 13.960938 -36.210938 L 43.363281 -36.777344 L 40.976562 -30.988281 C 41.433594 -34.46875 41.375 -37.402344 40.808594 -39.785156 C 40.238281 -42.167969 39.199219 -43.984375 37.6875 -45.234375 C 36.171875 -46.484375 34.089844 -47.109375 31.441406 -47.109375 C 28.644531 -47.109375 26.410156 -46.390625 24.746094 -44.949219 C 23.082031 -43.511719 21.90625 -41.488281 21.226562 -38.878906 C 20.546875 -36.265625 20.207031 -33.183594 20.207031 -29.625 C 20.207031 -23.496094 21.226562 -19.03125 23.269531 -16.230469 C 25.3125 -13.433594 28.453125 -12.03125 32.691406 -12.03125 C 34.507812 -12.03125 36.019531 -12.257812 37.230469 -12.714844 C 38.441406 -13.167969 39.425781 -13.828125 40.183594 -14.699219 C 40.941406 -15.570312 41.46875 -16.628906 41.773438 -17.878906 C 42.074219 -19.125 42.1875 -20.546875 42.113281 -22.136719 L 58.914062 -21.226562 C 59.140625 -18.730469 58.894531 -16.15625 58.175781 -13.507812 C 57.457031 -10.859375 56.113281 -8.398438 54.144531 -6.128906 C 52.179688 -3.859375 49.433594 -2.003906 45.914062 -0.566406 C 42.398438 0.871094 37.949219 1.589844 32.578125 1.589844 Z M 32.578125 1.589844 "/></g></g></g><g fill="#000000" fill-opacity="1"><g transform="translate(895.488109, 175.499988)"><g><path d="M 25.3125 1.589844 C 21 1.589844 17.121094 0.417969 13.679688 -1.929688 C 10.234375 -4.277344 7.511719 -7.832031 5.503906 -12.601562 C 3.5 -17.367188 2.496094 -23.382812 2.496094 -30.648438 C 2.496094 -37.535156 3.40625 -43.265625 5.222656 -47.84375 C 7.039062 -52.425781 9.609375 -55.847656 12.941406 -58.117188 C 16.269531 -60.386719 20.167969 -61.523438 24.632812 -61.523438 C 28.113281 -61.523438 31.195312 -60.804688 33.882812 -59.367188 C 36.570312 -57.929688 38.785156 -55.660156 40.523438 -52.554688 C 42.265625 -49.453125 43.476562 -45.40625 44.15625 -40.410156 L 45.179688 -40.410156 C 44.800781 -42.984375 44.421875 -45.519531 44.042969 -48.015625 C 43.664062 -50.511719 43.378906 -52.933594 43.191406 -55.28125 C 43.003906 -57.625 42.90625 -59.820312 42.90625 -61.863281 L 42.90625 -79.457031 L 61.296875 -79.457031 L 61.296875 0 L 45.292969 0 L 45.292969 -18.503906 L 44.496094 -18.503906 C 43.664062 -14.113281 42.398438 -10.425781 40.695312 -7.433594 C 38.992188 -4.445312 36.871094 -2.195312 34.335938 -0.679688 C 31.800781 0.832031 28.792969 1.589844 25.3125 1.589844 Z M 31.785156 -13.054688 C 33.222656 -13.054688 34.621094 -13.375 35.984375 -14.019531 C 37.34375 -14.660156 38.554688 -15.664062 39.617188 -17.027344 C 40.675781 -18.390625 41.527344 -20.089844 42.167969 -22.136719 C 42.8125 -24.179688 43.132812 -26.601562 43.132812 -29.398438 L 43.132812 -30.195312 C 43.132812 -32.464844 42.90625 -34.488281 42.453125 -36.265625 C 42 -38.046875 41.394531 -39.558594 40.636719 -40.808594 C 39.878906 -42.054688 39.011719 -43.078125 38.027344 -43.871094 C 37.042969 -44.667969 36.003906 -45.253906 34.90625 -45.632812 C 33.808594 -46.011719 32.730469 -46.199219 31.671875 -46.199219 C 29.324219 -46.199219 27.355469 -45.40625 25.765625 -43.816406 C 24.179688 -42.226562 23.003906 -40.164062 22.25 -37.628906 C 21.492188 -35.09375 21.113281 -32.351562 21.113281 -29.398438 C 21.113281 -26.449219 21.53125 -23.722656 22.363281 -21.226562 C 23.195312 -18.730469 24.40625 -16.742188 25.996094 -15.265625 C 27.582031 -13.792969 29.511719 -13.054688 31.785156 -13.054688 Z M 31.785156 -13.054688 "/></g></g></g><g fill="#000000" fill-opacity="1"><g transform="translate(69.718388, 273.749982)"><g><path d="M 71.058594 17.820312 C 65.914062 18.957031 61.523438 19.65625 57.890625 19.921875 C 54.257812 20.1875 51.042969 20.167969 48.242188 19.863281 C 45.441406 19.5625 42.71875 19.125 40.070312 18.558594 C 37.421875 17.992188 34.546875 17.425781 31.441406 16.855469 C 28.339844 16.289062 24.671875 15.855469 20.433594 15.550781 C 16.195312 15.25 11.046875 15.285156 4.996094 15.664062 L 4.996094 0.566406 C 7.113281 0.71875 9.648438 0.777344 12.601562 0.738281 C 15.550781 0.699219 18.710938 0.546875 22.078125 0.285156 C 25.445312 0.0195312 28.777344 -0.339844 32.066406 -0.792969 C 35.359375 -1.25 38.367188 -1.816406 41.089844 -2.496094 C 43.816406 -3.179688 46.011719 -3.972656 47.675781 -4.882812 L 47.675781 -5.5625 C 41.695312 -3.898438 36.34375 -3.160156 31.613281 -3.347656 C 26.882812 -3.539062 22.722656 -4.503906 19.125 -6.242188 C 15.53125 -7.984375 12.542969 -10.386719 10.160156 -13.453125 C 7.777344 -16.515625 5.996094 -20.089844 4.824219 -24.179688 C 3.652344 -28.265625 3.066406 -32.765625 3.066406 -37.6875 C 3.066406 -43.4375 3.800781 -48.679688 5.277344 -53.40625 C 6.753906 -58.136719 8.929688 -62.222656 11.804688 -65.667969 C 14.679688 -69.109375 18.292969 -71.777344 22.644531 -73.667969 C 26.996094 -75.5625 32.046875 -76.507812 37.800781 -76.507812 C 45.066406 -76.507812 51.230469 -74.992188 56.300781 -71.96875 C 61.371094 -68.941406 65.214844 -64.53125 67.824219 -58.742188 C 70.433594 -52.953125 71.738281 -45.972656 71.738281 -37.800781 C 71.738281 -30.535156 70.71875 -24.480469 68.675781 -19.636719 C 66.632812 -14.792969 63.832031 -10.859375 60.273438 -7.832031 C 56.71875 -4.804688 52.613281 -2.515625 47.960938 -0.964844 C 43.304688 0.585938 38.328125 1.703125 33.03125 2.382812 L 33.144531 3.179688 C 37.609375 3.859375 41.566406 4.40625 45.007812 4.824219 C 48.449219 5.242188 51.609375 5.449219 54.484375 5.449219 C 57.363281 5.449219 60.144531 5.222656 62.828125 4.765625 C 65.515625 4.3125 68.257812 3.519531 71.058594 2.382812 Z M 37.6875 -12.371094 C 40.335938 -12.371094 42.773438 -13.074219 45.007812 -14.472656 C 47.238281 -15.871094 49.054688 -18.332031 50.457031 -21.851562 C 51.855469 -25.371094 52.554688 -30.230469 52.554688 -36.4375 C 52.554688 -42.339844 51.96875 -47.125 50.796875 -50.796875 C 49.625 -54.46875 47.902344 -57.171875 45.632812 -58.914062 C 43.363281 -60.652344 40.5625 -61.523438 37.230469 -61.523438 C 34.734375 -61.523438 32.351562 -60.804688 30.082031 -59.367188 C 27.8125 -57.929688 25.957031 -55.449219 24.519531 -51.933594 C 23.082031 -48.414062 22.363281 -43.511719 22.363281 -37.230469 C 22.363281 -30.875 23.042969 -25.878906 24.40625 -22.25 C 25.765625 -18.617188 27.621094 -16.0625 29.96875 -14.585938 C 32.3125 -13.109375 34.886719 -12.371094 37.6875 -12.371094 Z M 37.6875 -12.371094 "/></g></g></g><g fill="#000000" fill-opacity="1"><g transform="translate(144.520068, 273.749982)"><g><path d="M 22.703125 1.589844 C 16.195312 1.589844 11.371094 -0.679688 8.230469 -5.222656 C 5.089844 -9.761719 3.519531 -16.722656 3.519531 -26.109375 L 3.519531 -59.933594 L 21.90625 -59.933594 L 21.90625 -26.335938 C 21.90625 -21.945312 22.53125 -18.882812 23.78125 -17.140625 C 25.03125 -15.398438 26.828125 -14.53125 29.171875 -14.53125 C 30.835938 -14.53125 32.371094 -14.964844 33.769531 -15.835938 C 35.171875 -16.707031 36.398438 -18.03125 37.460938 -19.808594 C 38.519531 -21.585938 39.332031 -23.875 39.898438 -26.675781 C 40.46875 -29.476562 40.75 -32.84375 40.75 -36.777344 L 40.75 -59.933594 L 59.140625 -59.933594 L 59.140625 0 L 43.476562 0 L 43.476562 -23.382812 L 42.679688 -23.382812 C 42.226562 -17.554688 41.203125 -12.808594 39.617188 -9.136719 C 38.027344 -5.46875 35.832031 -2.761719 33.03125 -1.023438 C 30.230469 0.71875 26.789062 1.589844 22.703125 1.589844 Z M 22.703125 1.589844 "/></g></g></g><g fill="#000000" fill-opacity="1"><g transform="translate(207.743945, 273.749982)"><g><path d="M 32.578125 1.589844 C 26.902344 1.589844 22.152344 0.777344 18.332031 -0.851562 C 14.511719 -2.476562 11.425781 -4.710938 9.082031 -7.546875 C 6.734375 -10.386719 5.050781 -13.621094 4.03125 -17.253906 C 3.007812 -20.886719 2.496094 -24.707031 2.496094 -28.71875 C 2.496094 -33.03125 3.046875 -37.15625 4.144531 -41.089844 C 5.242188 -45.027344 6.941406 -48.527344 9.25 -51.589844 C 11.558594 -54.65625 14.546875 -57.078125 18.21875 -58.855469 C 21.890625 -60.632812 26.296875 -61.523438 31.441406 -61.523438 C 36.589844 -61.523438 40.996094 -60.632812 44.667969 -58.855469 C 48.335938 -57.078125 51.269531 -54.597656 53.464844 -51.421875 C 55.660156 -48.242188 57.078125 -44.574219 57.722656 -40.410156 C 58.363281 -36.25 58.269531 -31.746094 57.4375 -26.902344 L 13.960938 -26.222656 L 13.960938 -36.210938 L 43.363281 -36.777344 L 40.976562 -30.988281 C 41.433594 -34.46875 41.375 -37.402344 40.808594 -39.785156 C 40.238281 -42.167969 39.199219 -43.984375 37.6875 -45.234375 C 36.171875 -46.484375 34.089844 -47.109375 31.441406 -47.109375 C 28.644531 -47.109375 26.410156 -46.390625 24.746094 -44.949219 C 23.082031 -43.511719 21.90625 -41.488281 21.226562 -38.878906 C 20.546875 -36.265625 20.207031 -33.183594 20.207031 -29.625 C 20.207031 -23.496094 21.226562 -19.03125 23.269531 -16.230469 C 25.3125 -13.433594 28.453125 -12.03125 32.691406 -12.03125 C 34.507812 -12.03125 36.019531 -12.257812 37.230469 -12.714844 C 38.441406 -13.167969 39.425781 -13.828125 40.183594 -14.699219 C 40.941406 -15.570312 41.46875 -16.628906 41.773438 -17.878906 C 42.074219 -19.125 42.1875 -20.546875 42.113281 -22.136719 L 58.914062 -21.226562 C 59.140625 -18.730469 58.894531 -16.15625 58.175781 -13.507812 C 57.457031 -10.859375 56.113281 -8.398438 54.144531 -6.128906 C 52.179688 -3.859375 49.433594 -2.003906 45.914062 -0.566406 C 42.398438 0.871094 37.949219 1.589844 32.578125 1.589844 Z M 32.578125 1.589844 "/></g></g></g><g fill="#000000" fill-opacity="1"><g transform="translate(268.697669, 273.749982)"><g><path d="M 30.308594 1.589844 C 26.296875 1.589844 22.570312 1.191406 19.125 0.398438 C 15.683594 -0.398438 12.695312 -1.664062 10.160156 -3.40625 C 7.625 -5.144531 5.695312 -7.472656 4.371094 -10.386719 C 3.046875 -13.300781 2.496094 -16.835938 2.722656 -21 L 18.730469 -22.363281 C 18.882812 -19.863281 19.449219 -17.800781 20.433594 -16.175781 C 21.417969 -14.546875 22.777344 -13.355469 24.519531 -12.601562 C 26.257812 -11.84375 28.378906 -11.464844 30.875 -11.464844 C 33.222656 -11.464844 35.246094 -11.863281 36.949219 -12.65625 C 38.652344 -13.453125 39.503906 -14.792969 39.503906 -16.6875 C 39.503906 -17.671875 39.199219 -18.484375 38.59375 -19.125 C 37.988281 -19.769531 36.871094 -20.375 35.246094 -20.941406 C 33.617188 -21.511719 31.253906 -22.171875 28.152344 -22.929688 C 24.292969 -23.914062 20.8125 -24.898438 17.707031 -25.878906 C 14.605469 -26.863281 11.957031 -28.039062 9.761719 -29.398438 C 7.566406 -30.761719 5.902344 -32.445312 4.765625 -34.449219 C 3.632812 -36.457031 3.066406 -38.933594 3.066406 -41.886719 C 3.066406 -46.046875 4.179688 -49.585938 6.414062 -52.5 C 8.644531 -55.414062 11.730469 -57.644531 15.664062 -59.195312 C 19.601562 -60.75 24.140625 -61.523438 29.285156 -61.523438 C 33.902344 -61.523438 38.214844 -60.804688 42.226562 -59.367188 C 46.238281 -57.929688 49.398438 -55.582031 51.703125 -52.328125 C 54.011719 -49.074219 54.863281 -44.761719 54.257812 -39.390625 L 38.59375 -37.914062 C 38.820312 -40.109375 38.519531 -41.980469 37.6875 -43.53125 C 36.855469 -45.082031 35.644531 -46.257812 34.054688 -47.050781 C 32.464844 -47.84375 30.535156 -48.242188 28.265625 -48.242188 C 25.691406 -48.242188 23.707031 -47.769531 22.304688 -46.824219 C 20.90625 -45.878906 20.207031 -44.6875 20.207031 -43.25 C 20.207031 -42.113281 20.640625 -41.148438 21.511719 -40.355469 C 22.382812 -39.558594 23.742188 -38.878906 25.597656 -38.308594 C 27.449219 -37.742188 29.855469 -37.117188 32.804688 -36.4375 C 35.378906 -35.90625 38.066406 -35.226562 40.863281 -34.394531 C 43.664062 -33.5625 46.273438 -32.445312 48.695312 -31.046875 C 51.117188 -29.644531 53.085938 -27.8125 54.597656 -25.539062 C 56.113281 -23.269531 56.871094 -20.394531 56.871094 -16.914062 C 56.871094 -13.207031 55.847656 -9.953125 53.804688 -7.152344 C 51.761719 -4.351562 48.773438 -2.195312 44.835938 -0.679688 C 40.902344 0.832031 36.058594 1.589844 30.308594 1.589844 Z M 30.308594 1.589844 "/></g></g></g><g fill="#000000" fill-opacity="1"><g transform="translate(327.381228, 273.749982)"><g><path d="M 28.039062 1.363281 C 21 1.363281 15.757812 -0.433594 12.316406 -4.03125 C 8.871094 -7.625 7.152344 -13.207031 7.152344 -20.773438 L 7.152344 -45.632812 L 0.566406 -45.632812 L 0.566406 -57.210938 L 0.90625 -57.210938 C 5.601562 -57.816406 8.929688 -59.386719 10.898438 -61.921875 C 12.863281 -64.457031 14.074219 -68.296875 14.53125 -73.441406 L 14.53125 -73.667969 L 25.3125 -73.667969 L 25.3125 -59.933594 L 39.046875 -59.933594 L 39.046875 -45.179688 L 25.3125 -45.179688 L 25.3125 -22.476562 C 25.3125 -19.601562 26.011719 -17.554688 27.414062 -16.347656 C 28.8125 -15.136719 30.535156 -14.53125 32.578125 -14.53125 C 33.636719 -14.53125 34.734375 -14.679688 35.871094 -14.984375 C 37.003906 -15.285156 38.066406 -15.703125 39.046875 -16.230469 L 39.046875 -0.226562 C 36.703125 0.453125 34.621094 0.890625 32.804688 1.078125 C 30.988281 1.265625 29.398438 1.363281 28.039062 1.363281 Z M 28.039062 1.363281 "/></g></g></g><g fill="#000000" fill-opacity="1"><g transform="translate(369.152114, 273.749982)"><g><path d="M 4.085938 0 L 4.085938 -59.933594 L 22.476562 -59.933594 L 22.476562 0 Z M 13.167969 -64.25 C 9.6875 -64.25 7.019531 -64.984375 5.164062 -66.460938 C 3.3125 -67.9375 2.382812 -70.074219 2.382812 -72.875 C 2.382812 -75.75 3.3125 -77.925781 5.164062 -79.402344 C 7.019531 -80.878906 9.6875 -81.617188 13.167969 -81.617188 C 16.722656 -81.617188 19.429688 -80.859375 21.285156 -79.34375 C 23.136719 -77.832031 24.066406 -75.675781 24.066406 -72.875 C 24.066406 -70.152344 23.136719 -68.03125 21.285156 -66.519531 C 19.429688 -65.003906 16.722656 -64.25 13.167969 -64.25 Z M 13.167969 -64.25 "/></g></g></g><g fill="#000000" fill-opacity="1"><g transform="translate(395.712957, 273.749982)"><g><path d="M 32.011719 1.589844 C 26.257812 1.589844 21.152344 0.433594 16.6875 -1.871094 C 12.222656 -4.179688 8.742188 -7.660156 6.242188 -12.316406 C 3.746094 -16.96875 2.496094 -22.816406 2.496094 -29.855469 C 2.496094 -37.195312 3.800781 -43.191406 6.414062 -47.84375 C 9.023438 -52.5 12.582031 -55.941406 17.082031 -58.175781 C 21.585938 -60.40625 26.675781 -61.523438 32.351562 -61.523438 C 38.253906 -61.523438 43.417969 -60.371094 47.84375 -58.0625 C 52.273438 -55.753906 55.714844 -52.273438 58.175781 -47.617188 C 60.632812 -42.964844 61.863281 -37.082031 61.863281 -29.96875 C 61.863281 -22.625 60.558594 -16.628906 57.949219 -11.976562 C 55.335938 -7.320312 51.78125 -3.898438 47.277344 -1.703125 C 42.773438 0.492188 37.6875 1.589844 32.011719 1.589844 Z M 32.464844 -11.917969 C 34.808594 -11.917969 36.777344 -12.582031 38.367188 -13.90625 C 39.957031 -15.230469 41.167969 -17.179688 42 -19.75 C 42.832031 -22.324219 43.25 -25.390625 43.25 -28.945312 C 43.25 -32.878906 42.792969 -36.191406 41.886719 -38.878906 C 40.976562 -41.566406 39.671875 -43.625 37.96875 -45.066406 C 36.265625 -46.503906 34.207031 -47.222656 31.785156 -47.222656 C 29.511719 -47.222656 27.582031 -46.558594 25.996094 -45.234375 C 24.40625 -43.910156 23.195312 -41.960938 22.363281 -39.390625 C 21.53125 -36.816406 21.113281 -33.714844 21.113281 -30.082031 C 21.113281 -24.328125 22.117188 -19.863281 24.121094 -16.6875 C 26.125 -13.507812 28.90625 -11.917969 32.464844 -11.917969 Z M 32.464844 -11.917969 "/></g></g></g><g fill="#000000" fill-opacity="1"><g transform="translate(460.071939, 273.749982)"><g><path d="M 4.085938 0 L 4.085938 -59.933594 L 19.636719 -59.933594 L 19.636719 -35.53125 L 20.546875 -35.53125 C 21 -41.433594 21.984375 -46.292969 23.496094 -50.117188 C 25.011719 -53.9375 27.167969 -56.792969 29.96875 -58.6875 C 32.765625 -60.578125 36.324219 -61.523438 40.636719 -61.523438 C 47.144531 -61.523438 52.046875 -59.367188 55.335938 -55.054688 C 58.628906 -50.738281 60.273438 -44.308594 60.273438 -35.757812 L 60.273438 0 L 41.886719 0 L 41.886719 -33.371094 C 41.886719 -37.460938 41.261719 -40.523438 40.011719 -42.566406 C 38.765625 -44.609375 36.777344 -45.632812 34.054688 -45.632812 C 31.785156 -45.632812 29.777344 -44.835938 28.039062 -43.25 C 26.296875 -41.660156 24.933594 -39.085938 23.949219 -35.53125 C 22.96875 -31.972656 22.476562 -27.207031 22.476562 -21.226562 L 22.476562 0 Z M 4.085938 0 "/></g></g></g><g fill="#000000" fill-opacity="1"><g transform="translate(523.863362, 273.749982)"><g><path d="M 30.308594 1.589844 C 26.296875 1.589844 22.570312 1.191406 19.125 0.398438 C 15.683594 -0.398438 12.695312 -1.664062 10.160156 -3.40625 C 7.625 -5.144531 5.695312 -7.472656 4.371094 -10.386719 C 3.046875 -13.300781 2.496094 -16.835938 2.722656 -21 L 18.730469 -22.363281 C 18.882812 -19.863281 19.449219 -17.800781 20.433594 -16.175781 C 21.417969 -14.546875 22.777344 -13.355469 24.519531 -12.601562 C 26.257812 -11.84375 28.378906 -11.464844 30.875 -11.464844 C 33.222656 -11.464844 35.246094 -11.863281 36.949219 -12.65625 C 38.652344 -13.453125 39.503906 -14.792969 39.503906 -16.6875 C 39.503906 -17.671875 39.199219 -18.484375 38.59375 -19.125 C 37.988281 -19.769531 36.871094 -20.375 35.246094 -20.941406 C 33.617188 -21.511719 31.253906 -22.171875 28.152344 -22.929688 C 24.292969 -23.914062 20.8125 -24.898438 17.707031 -25.878906 C 14.605469 -26.863281 11.957031 -28.039062 9.761719 -29.398438 C 7.566406 -30.761719 5.902344 -32.445312 4.765625 -34.449219 C 3.632812 -36.457031 3.066406 -38.933594 3.066406 -41.886719 C 3.066406 -46.046875 4.179688 -49.585938 6.414062 -52.5 C 8.644531 -55.414062 11.730469 -57.644531 15.664062 -59.195312 C 19.601562 -60.75 24.140625 -61.523438 29.285156 -61.523438 C 33.902344 -61.523438 38.214844 -60.804688 42.226562 -59.367188 C 46.238281 -57.929688 49.398438 -55.582031 51.703125 -52.328125 C 54.011719 -49.074219 54.863281 -44.761719 54.257812 -39.390625 L 38.59375 -37.914062 C 38.820312 -40.109375 38.519531 -41.980469 37.6875 -43.53125 C 36.855469 -45.082031 35.644531 -46.257812 34.054688 -47.050781 C 32.464844 -47.84375 30.535156 -48.242188 28.265625 -48.242188 C 25.691406 -48.242188 23.707031 -47.769531 22.304688 -46.824219 C 20.90625 -45.878906 20.207031 -44.6875 20.207031 -43.25 C 20.207031 -42.113281 20.640625 -41.148438 21.511719 -40.355469 C 22.382812 -39.558594 23.742188 -38.878906 25.597656 -38.308594 C 27.449219 -37.742188 29.855469 -37.117188 32.804688 -36.4375 C 35.378906 -35.90625 38.066406 -35.226562 40.863281 -34.394531 C 43.664062 -33.5625 46.273438 -32.445312 48.695312 -31.046875 C 51.117188 -29.644531 53.085938 -27.8125 54.597656 -25.539062 C 56.113281 -23.269531 56.871094 -20.394531 56.871094 -16.914062 C 56.871094 -13.207031 55.847656 -9.953125 53.804688 -7.152344 C 51.761719 -4.351562 48.773438 -2.195312 44.835938 -0.679688 C 40.902344 0.832031 36.058594 1.589844 30.308594 1.589844 Z M 30.308594 1.589844 "/></g></g></g></svg>