<svg xmlns="http://www.w3.org/2000/svg" xmlns:xlink="http://www.w3.org/1999/xlink" width="500" zoomAndPan="magnify" viewBox="0 0 375 374.999991" height="500" preserveAspectRatio="xMidYMid meet" version="1.0"><defs><g/><clipPath id="55a0a95ef1"><path d="M 41 71 L 336 71 L 336 246.578125 L 41 246.578125 Z M 41 71 " clip-rule="nonzero"/></clipPath></defs><g clip-path="url(#55a0a95ef1)"><path fill="#000000" d="M 332.917969 234.550781 C 332.535156 234.128906 332.183594 233.726562 331.941406 233.335938 C 329.882812 229.925781 327.453125 225.96875 324.796875 222.199219 C 317.359375 211.644531 308.613281 202.050781 298.808594 193.6875 C 296.710938 191.898438 294.414062 190.289062 292.171875 188.71875 C 289.214844 186.640625 286.40625 184.675781 284.082031 182.359375 C 280.328125 178.671875 276.21875 175.300781 272.253906 172.066406 C 271.058594 171.078125 269.871094 170.09375 268.671875 169.105469 C 259.132812 161.148438 251.578125 154.4375 244.886719 147.953125 C 239.070312 142.300781 233.355469 136.289062 227.859375 130.484375 C 220.90625 123.179688 213.714844 115.613281 206.167969 108.621094 C 195.328125 98.585938 185.089844 91.097656 174.863281 85.707031 C 172.699219 84.566406 170.457031 83.589844 168.285156 82.671875 C 165.171875 81.339844 162.230469 80.066406 159.542969 78.34375 C 154.828125 75.296875 148.566406 74.261719 143.050781 73.355469 C 142.273438 73.21875 141.519531 73.105469 140.78125 72.96875 C 121.207031 69.5625 101.960938 71.035156 85.09375 77.222656 C 67.167969 83.820312 53.3125 95.40625 46.042969 109.878906 C 38.324219 125.285156 40.355469 144.601562 51.0625 158.324219 C 49.460938 162.824219 49.203125 167.890625 50.332031 172.199219 C 46.972656 183.632812 49.875 196.667969 57.804688 205.582031 C 58.425781 206.261719 59.429688 206.472656 60.253906 206.070312 C 65.03125 203.839844 70.15625 201.542969 75.527344 199.703125 C 82.164062 214.402344 88.339844 229.496094 93.886719 244.597656 C 94.171875 245.402344 94.921875 245.9375 95.761719 245.964844 C 105.539062 246.300781 114.113281 246.445312 122.089844 246.445312 C 127.738281 246.445312 133.089844 246.378906 138.40625 246.207031 C 140.386719 246.167969 142.410156 246.136719 144.410156 246.136719 C 146.421875 246.136719 148.402344 246.167969 150.367188 246.175781 C 152.378906 246.195312 154.398438 246.207031 156.398438 246.207031 L 327.652344 246.207031 C 327.910156 246.207031 328.226562 246.242188 328.550781 246.253906 C 330.316406 246.378906 332.707031 246.519531 334.269531 244.96875 C 336.355469 242.871094 335.496094 238.957031 334.730469 237.183594 C 334.269531 236.09375 333.550781 235.269531 332.917969 234.550781 " fill-opacity="1" fill-rule="nonzero"/><path fill="#000000" d="M 88.792969 162.71875 C 88.015625 162.929688 87.230469 163.09375 86.445312 163.226562 C 84.914062 163.65625 83.285156 164.320312 81.445312 165.191406 C 80.34375 165.726562 79.253906 166.292969 78.160156 166.855469 C 75.824219 168.054688 73.421875 169.296875 70.882812 170.207031 C 67.992188 171.222656 66.613281 170.160156 66.039062 169.441406 C 65.300781 168.503906 65.1875 167.113281 65.75 165.9375 C 66.21875 164.960938 67.035156 164.300781 67.609375 163.886719 C 70.949219 161.464844 75.230469 160.957031 79.320312 160.765625 L 80.355469 160.71875 C 82.078125 160.640625 83.820312 160.566406 85.515625 160.324219 C 85.34375 160.25 85.171875 160.164062 85 160.085938 L 84.167969 159.703125 C 81.121094 158.324219 77.875 157.519531 74.542969 157.335938 C 71.246094 157.144531 68.566406 157.664062 66.59375 158.90625 C 63.941406 160.535156 62.359375 163.4375 60.683594 166.484375 C 58.953125 169.671875 57.140625 172.976562 53.953125 175.054688 C 53.945312 175.0625 53.925781 175.0625 53.925781 175.0625 C 51.933594 183.664062 53.820312 193.066406 58.921875 200.257812 C 60.523438 190.050781 66.441406 180.644531 74.992188 174.84375 C 76.246094 174.007812 77.550781 173.222656 78.8125 172.476562 C 80.796875 171.320312 82.671875 170.199219 84.367188 168.820312 C 86.609375 166.992188 88.148438 164.855469 88.792969 162.71875 Z M 96.480469 154.140625 C 97.621094 152.597656 98.730469 150.949219 98.503906 149.445312 C 98.300781 148.039062 96.929688 146.871094 95.832031 146.152344 C 91.691406 143.480469 86.445312 142.867188 82.316406 142.628906 C 78.21875 142.390625 73.480469 142.417969 69.484375 144.46875 C 66.113281 146.199219 63.058594 150.089844 63.777344 154.140625 C 63.914062 154.933594 63.414062 155.679688 62.628906 155.851562 C 59.8125 156.464844 57.285156 158.191406 55.6875 160.566406 C 54.699219 162.03125 54.078125 163.726562 53.847656 165.457031 C 53.753906 167.304688 53.914062 169.117188 54.316406 170.8125 C 55.78125 169.203125 56.902344 167.171875 58.0625 165.054688 C 59.863281 161.789062 61.699219 158.410156 65.003906 156.371094 C 67.511719 154.800781 70.769531 154.121094 74.703125 154.347656 C 78.410156 154.558594 82.019531 155.441406 85.390625 156.984375 L 86.273438 157.386719 C 87.863281 158.132812 89.355469 158.832031 90.820312 158.695312 C 93.082031 158.503906 94.851562 156.332031 96.480469 154.140625 Z M 106.203125 151.90625 C 107.695312 151.015625 109.449219 149.984375 110.480469 148.652344 C 107.476562 148.757812 104.449219 149.074219 101.5 149.550781 C 101.613281 152.195312 99.929688 154.492188 98.875 155.921875 C 97.402344 157.921875 95.667969 160.046875 93.378906 161.0625 C 93.378906 161.070312 93.378906 161.089844 93.378906 161.089844 C 93.332031 161.886719 92.6875 162.5 91.921875 162.507812 C 91.136719 166.589844 88.148438 169.59375 86.246094 171.136719 C 84.386719 172.660156 82.328125 173.886719 80.34375 175.054688 C 79.121094 175.78125 77.847656 176.527344 76.667969 177.324219 C 68.785156 182.65625 63.328125 191.332031 61.863281 200.738281 C 64.871094 199.378906 67.972656 198.027344 71.210938 196.820312 C 73.671875 195.296875 75.980469 193.601562 78.09375 191.957031 C 79.398438 190.941406 80.671875 189.898438 81.953125 188.863281 C 86.320312 185.320312 90.832031 181.660156 95.945312 178.96875 C 97.402344 178.203125 98.664062 177.484375 99.382812 176.632812 C 98.28125 176.441406 97.132812 176.144531 96.039062 175.648438 C 93.960938 174.707031 92.449219 173.109375 91.894531 171.25 C 91.40625 169.613281 91.605469 167.746094 92.554688 165.542969 C 95.371094 158.90625 101.691406 154.589844 106.203125 151.90625 Z M 331.347656 241.980469 C 331.53125 241.648438 331.378906 239.988281 330.871094 238.8125 C 330.679688 238.34375 330.238281 237.855469 329.769531 237.316406 C 329.320312 236.8125 328.792969 236.207031 328.371094 235.507812 C 326.339844 232.15625 323.945312 228.269531 321.378906 224.609375 C 314.140625 214.355469 305.636719 205.007812 296.089844 196.878906 C 294.15625 195.222656 292.019531 193.726562 289.777344 192.136719 C 286.800781 190.058594 283.726562 187.90625 281.140625 185.347656 C 277.519531 181.777344 273.5 178.492188 269.609375 175.292969 C 268.394531 174.304688 267.1875 173.320312 265.992188 172.316406 C 256.386719 164.300781 248.742188 157.519531 241.972656 150.949219 C 236.09375 145.242188 230.359375 139.199219 224.824219 133.378906 C 217.917969 126.109375 210.785156 118.59375 203.324219 111.695312 C 192.75 101.917969 182.800781 94.621094 172.910156 89.414062 C 170.898438 88.351562 168.734375 87.421875 166.648438 86.519531 C 163.503906 85.179688 160.257812 83.792969 157.273438 81.855469 C 153.296875 79.289062 147.496094 78.332031 142.378906 77.480469 C 141.585938 77.355469 140.808594 77.222656 140.0625 77.089844 C 121.226562 73.8125 102.726562 75.222656 86.542969 81.160156 C 69.621094 87.375 56.578125 98.242188 49.796875 111.753906 C 42.613281 126.082031 44.730469 144.113281 55.046875 156.621094 C 55.0625 156.636719 55.0625 156.648438 55.074219 156.675781 C 56.664062 155.144531 58.589844 153.957031 60.695312 153.285156 C 60.523438 148.335938 64.140625 143.855469 68.125 141.804688 C 72.78125 139.410156 78.25 139.382812 82.492188 139.640625 C 85.898438 139.832031 90.046875 140.292969 93.914062 141.832031 C 96.460938 142.207031 99.585938 142.523438 102.707031 141.691406 C 106.566406 140.683594 109.238281 137.886719 110.644531 135.648438 C 112.0625 133.378906 112.40625 131.625 112.800781 131.671875 C 113.097656 131.683594 113.414062 133.625 112.226562 136.46875 C 111.613281 137.859375 110.644531 139.457031 109.152344 140.867188 C 107.695312 142.285156 105.664062 143.507812 103.367188 144.121094 C 101.777344 144.554688 100.226562 144.660156 98.761719 144.628906 C 99.535156 145.269531 100.148438 145.960938 100.597656 146.679688 C 100.628906 146.679688 100.636719 146.660156 100.667969 146.648438 C 100.847656 146.621094 101.050781 146.601562 101.222656 146.574219 C 103.777344 145.75 109.851562 144.753906 117.011719 145.375 C 126.628906 146.171875 133.800781 149.523438 133.53125 150.117188 C 133.292969 150.816406 126.015625 148.640625 116.800781 147.886719 C 115.902344 147.820312 115.019531 147.75 114.160156 147.714844 C 113.414062 151.074219 110.148438 153.046875 107.722656 154.484375 C 103.566406 156.933594 97.773438 160.878906 95.304688 166.722656 C 94.644531 168.253906 94.480469 169.441406 94.765625 170.398438 C 94.851562 170.714844 95.027344 171.011719 95.238281 171.300781 C 98.050781 172.332031 102.859375 174.152344 108.59375 175.234375 C 117.597656 177.027344 125.144531 176.230469 125.238281 176.976562 C 125.277344 177.292969 123.4375 177.925781 120.316406 178.28125 C 117.308594 178.625 113.078125 178.605469 108.519531 177.773438 C 107.636719 177.753906 106.652344 177.753906 105.609375 177.859375 C 104.113281 177.964844 102.78125 178.25 101.71875 178.472656 C 100.542969 179.929688 98.710938 180.894531 97.34375 181.613281 C 92.496094 184.171875 88.101562 187.734375 83.839844 191.179688 C 82.539062 192.234375 81.253906 193.277344 79.933594 194.300781 C 79.347656 194.75 78.753906 195.222656 78.144531 195.679688 C 78.304688 195.84375 78.457031 196.042969 78.5625 196.265625 C 85.34375 211.15625 91.65625 226.476562 97.324219 241.828125 C 106.515625 242.125 114.636719 242.257812 122.222656 242.257812 C 127.785156 242.257812 133.0625 242.191406 138.28125 242.039062 C 142.332031 241.914062 146.441406 241.953125 150.40625 241.992188 C 152.40625 242.011719 154.410156 242.039062 156.398438 242.039062 L 327.652344 242.039062 C 327.996094 242.039062 328.390625 242.050781 328.820312 242.085938 C 329.460938 242.125 330.957031 242.222656 331.347656 241.980469 Z M 334.730469 237.183594 C 335.496094 238.957031 336.355469 242.871094 334.269531 244.96875 C 332.707031 246.519531 330.316406 246.378906 328.550781 246.253906 C 328.226562 246.242188 327.910156 246.207031 327.652344 246.207031 L 156.398438 246.207031 C 154.398438 246.207031 152.378906 246.195312 150.367188 246.175781 C 148.402344 246.167969 146.421875 246.136719 144.410156 246.136719 C 142.410156 246.136719 140.386719 246.167969 138.40625 246.207031 C 133.089844 246.378906 127.746094 246.445312 122.089844 246.445312 C 114.113281 246.445312 105.539062 246.300781 95.761719 245.964844 C 94.921875 245.9375 94.171875 245.402344 93.886719 244.597656 C 88.339844 229.496094 82.164062 214.402344 75.527344 199.703125 C 70.15625 201.542969 65.03125 203.839844 60.253906 206.070312 C 59.429688 206.472656 58.425781 206.261719 57.804688 205.582031 C 49.875 196.667969 46.972656 183.632812 50.332031 172.199219 C 49.203125 167.890625 49.460938 162.824219 51.0625 158.324219 C 40.355469 144.601562 38.324219 125.285156 46.042969 109.878906 C 53.3125 95.40625 67.167969 83.820312 85.09375 77.222656 C 101.960938 71.035156 121.207031 69.5625 140.78125 72.96875 C 141.507812 73.105469 142.273438 73.21875 143.050781 73.355469 C 148.566406 74.261719 154.828125 75.296875 159.542969 78.34375 C 162.230469 80.066406 165.171875 81.339844 168.285156 82.671875 C 170.457031 83.589844 172.699219 84.566406 174.863281 85.707031 C 185.089844 91.097656 195.328125 98.585938 206.167969 108.621094 C 213.714844 115.613281 220.90625 123.179688 227.859375 130.484375 C 233.355469 136.289062 239.070312 142.300781 244.886719 147.953125 C 251.578125 154.4375 259.132812 161.148438 268.671875 169.105469 C 269.871094 170.09375 271.058594 171.078125 272.253906 172.066406 C 276.21875 175.300781 280.328125 178.671875 284.082031 182.359375 C 286.40625 184.675781 289.214844 186.640625 292.171875 188.71875 C 294.414062 190.289062 296.710938 191.898438 298.808594 193.6875 C 308.613281 202.050781 317.359375 211.644531 324.796875 222.199219 C 327.453125 225.96875 329.882812 229.925781 331.941406 233.335938 C 332.183594 233.726562 332.527344 234.128906 332.917969 234.550781 C 333.550781 235.269531 334.269531 236.09375 334.730469 237.183594 " fill-opacity="1" fill-rule="nonzero"/></g><path fill="#6f7d8c" d="M 119.4375 126.347656 C 119.503906 123.226562 118.429688 120.515625 117.308594 118.898438 C 116.179688 117.261719 115.078125 116.601562 114.847656 116.8125 C 114.5625 117.050781 115.117188 118.085938 115.730469 119.722656 C 116.34375 121.367188 116.964844 123.707031 116.917969 126.300781 C 116.859375 128.886719 116.132812 131.195312 115.441406 132.804688 C 114.753906 134.441406 114.160156 135.4375 114.425781 135.695312 C 114.667969 135.914062 115.769531 135.300781 116.984375 133.703125 C 118.179688 132.132812 119.367188 129.46875 119.4375 126.347656 Z M 122.921875 132.265625 C 123.496094 131.136719 123.976562 129.394531 123.964844 127.441406 C 123.945312 125.476562 123.429688 123.734375 122.824219 122.625 C 122.210938 121.492188 121.589844 120.949219 121.273438 121.101562 C 120.640625 121.425781 121.445312 124.136719 121.4375 127.460938 C 121.515625 130.773438 120.746094 133.492188 121.390625 133.808594 C 121.695312 133.960938 122.316406 133.40625 122.921875 132.265625 Z M 123.085938 205.804688 C 125.335938 205.59375 126.664062 205.105469 126.628906 204.769531 C 126.550781 204.039062 121.199219 204.203125 114.914062 202.632812 C 108.644531 201.140625 103.960938 198.523438 103.558594 199.148438 C 103.367188 199.414062 104.332031 200.46875 106.21875 201.695312 C 106.652344 201.972656 107.148438 202.257812 107.6875 202.546875 C 105.570312 202.308594 102.925781 201.859375 100.160156 200.84375 C 93.734375 198.640625 89.730469 194.542969 89.175781 195.046875 C 88.933594 195.257812 89.625 196.609375 91.328125 198.3125 C 93.015625 200.019531 95.832031 201.972656 99.316406 203.21875 C 102.8125 204.453125 106.21875 204.691406 108.605469 204.441406 C 109.535156 204.335938 110.308594 204.183594 110.914062 204.023438 C 111.976562 204.425781 113.117188 204.789062 114.339844 205.085938 C 117.683594 205.90625 120.832031 206.023438 123.085938 205.804688 Z M 133.339844 91.070312 C 136.308594 89.421875 138.605469 89.585938 138.625 89.171875 C 138.625 89.019531 138.070312 88.769531 137.027344 88.675781 C 135.964844 88.589844 134.382812 88.734375 132.574219 89.453125 C 130.792969 90.167969 128.800781 91.492188 127.144531 93.472656 C 125.488281 95.476562 124.289062 98.109375 123.707031 100.960938 C 123.140625 103.835938 123.179688 106.632812 123.535156 109.0625 C 123.890625 111.515625 124.484375 113.640625 125.085938 115.375 C 126.3125 118.832031 127.402344 120.804688 127.699219 120.699219 C 128.054688 120.59375 127.546875 118.382812 126.800781 114.894531 C 126.101562 111.449219 125.144531 106.582031 126.175781 101.46875 C 126.695312 98.949219 127.671875 96.664062 128.984375 94.910156 C 130.285156 93.15625 131.867188 91.894531 133.339844 91.070312 Z M 152.855469 125.417969 C 156.851562 122.328125 159.246094 117.019531 159.109375 111.582031 C 159.003906 107.320312 157.472656 103.105469 154.582031 99.054688 C 151.335938 94.527344 144.515625 93.398438 142.515625 93.15625 C 138.042969 92.640625 133.769531 93.972656 131.109375 96.738281 C 129.03125 98.855469 127.777344 101.976562 127.546875 105.539062 C 127.335938 108.621094 127.890625 111.648438 128.476562 114.511719 C 128.972656 116.933594 129.558594 119.480469 130.667969 121.839844 C 131.597656 123.761719 133.300781 126.378906 136.195312 127.84375 C 137.792969 128.648438 139.660156 129.066406 141.769531 129.066406 C 142.515625 129.066406 143.308594 129.011719 144.125 128.90625 C 147.496094 128.472656 150.511719 127.257812 152.855469 125.417969 Z M 163.074219 121.175781 C 163.4375 119.214844 163.332031 117.585938 163.101562 116.515625 C 162.875 115.433594 162.578125 114.886719 162.421875 114.914062 C 161.992188 114.972656 162.414062 117.335938 161.332031 120.757812 C 160.785156 122.433594 159.886719 124.375 158.402344 126.136719 C 156.9375 127.929688 154.90625 129.46875 152.40625 130.351562 C 149.925781 131.25 147.3125 131.433594 144.964844 131.28125 C 142.601562 131.117188 140.484375 130.609375 138.722656 130.101562 C 135.207031 129.039062 133.035156 128.109375 132.851562 128.457031 C 132.707031 128.742188 134.574219 130.21875 138.117188 131.777344 C 139.898438 132.535156 142.121094 133.273438 144.734375 133.597656 C 147.332031 133.894531 150.320312 133.78125 153.257812 132.734375 C 156.207031 131.703125 158.660156 129.730469 160.230469 127.574219 C 161.847656 125.4375 162.683594 123.132812 163.074219 121.175781 Z M 164.28125 221.621094 C 164.65625 220.992188 161.285156 218.320312 157.867188 214.402344 C 154.398438 210.523438 152.15625 206.847656 151.496094 207.144531 C 150.882812 207.382812 152.234375 211.855469 155.96875 216.070312 C 159.695312 220.300781 163.945312 222.199219 164.28125 221.621094 Z M 182.429688 230.050781 C 182.589844 229.3125 177.046875 227.914062 171.933594 223.460938 C 166.734375 219.09375 164.472656 213.828125 163.785156 214.097656 C 163.488281 214.21875 163.640625 215.714844 164.605469 217.925781 C 165.566406 220.121094 167.480469 222.964844 170.285156 225.367188 C 173.109375 227.78125 176.203125 229.21875 178.53125 229.828125 C 180.859375 230.441406 182.371094 230.367188 182.429688 230.050781 Z M 198.632812 234.214844 C 202.335938 234.65625 204.625 234.253906 204.617188 233.9375 C 204.617188 233.5625 202.386719 233.324219 198.949219 232.472656 C 195.519531 231.648438 190.875 230.070312 186.324219 227.234375 C 181.785156 224.410156 178.320312 220.933594 176.058594 218.214844 C 173.789062 215.503906 172.574219 213.609375 172.25 213.789062 C 171.960938 213.921875 172.621094 216.144531 174.625 219.265625 C 176.617188 222.398438 180.128906 226.34375 185.003906 229.378906 C 189.871094 232.414062 194.953125 233.8125 198.632812 234.214844 Z M 206.570312 195.46875 C 209.394531 194.003906 210.859375 192.664062 210.699219 192.394531 C 210.324219 191.734375 203.609375 195.574219 194.398438 196.371094 C 185.207031 197.308594 177.898438 194.78125 177.660156 195.5 C 177.554688 195.804688 179.238281 196.847656 182.292969 197.757812 C 183.894531 198.257812 185.914062 198.660156 188.15625 198.871094 C 186.527344 199.117188 184.753906 199.339844 182.878906 199.511719 C 179.585938 199.761719 175.984375 199.855469 172.199219 199.617188 C 168.417969 199.359375 164.847656 198.792969 161.628906 198.132812 C 158.429688 197.40625 155.578125 196.609375 153.222656 195.765625 C 148.488281 194.15625 145.664062 192.796875 145.472656 193.144531 C 145.328125 193.390625 147.878906 195.335938 152.570312 197.433594 C 154.90625 198.503906 157.808594 199.519531 161.09375 200.390625 C 164.394531 201.214844 168.113281 201.859375 172.039062 202.136719 C 175.972656 202.375 179.71875 202.210938 183.097656 201.828125 C 186.480469 201.386719 189.496094 200.746094 191.945312 200 C 193.328125 199.585938 194.523438 199.167969 195.558594 198.773438 C 200.039062 198.21875 203.9375 196.859375 206.570312 195.46875 Z M 211.367188 133.167969 C 211.578125 132.9375 210.324219 131.203125 207.652344 129.058594 C 206.320312 127.96875 204.597656 126.847656 202.597656 125.765625 C 200.574219 124.71875 198.257812 123.734375 195.730469 122.996094 C 194.3125 122.59375 192.90625 122.316406 191.546875 122.085938 C 190.269531 120.910156 188.210938 119.480469 185.550781 118.46875 C 180.589844 116.542969 176.195312 117.050781 176.222656 117.71875 C 176.195312 118.4375 180.160156 119.070312 184.640625 120.8125 C 185.328125 121.089844 185.972656 121.351562 186.59375 121.628906 C 185.0625 121.578125 183.644531 121.65625 182.417969 121.800781 C 179.007812 122.210938 177.019531 123.015625 177.074219 123.3125 C 177.152344 123.6875 179.230469 123.523438 182.503906 123.582031 C 184.132812 123.601562 186.078125 123.742188 188.203125 124.003906 C 190.339844 124.300781 192.65625 124.75 195.03125 125.417969 C 197.40625 126.128906 199.597656 126.980469 201.582031 127.84375 C 203.523438 128.753906 205.238281 129.671875 206.628906 130.523438 C 209.441406 132.210938 211.101562 133.445312 211.367188 133.167969 Z M 220.648438 157.980469 C 220.984375 158 221.382812 156.167969 221.058594 153.230469 C 220.742188 150.28125 219.515625 146.21875 216.84375 142.476562 C 214.164062 138.730469 210.714844 136.261719 208.035156 135.003906 C 205.363281 133.730469 203.503906 133.519531 203.417969 133.835938 C 203.277344 134.183594 204.867188 134.976562 207.15625 136.546875 C 209.425781 138.097656 212.375 140.570312 214.785156 143.941406 C 217.199219 147.320312 218.578125 150.890625 219.304688 153.554688 C 220.035156 156.234375 220.273438 157.980469 220.648438 157.980469 Z M 255.832031 204.214844 C 256.15625 204.175781 256.347656 202.660156 255.917969 200.257812 C 255.484375 197.863281 254.289062 194.636719 252.097656 191.582031 C 249.875 188.546875 247.183594 186.402344 245.046875 185.242188 C 242.894531 184.082031 241.398438 183.796875 241.265625 184.09375 C 240.9375 184.753906 246.0625 187.464844 250.035156 193.066406 C 254.125 198.601562 255.09375 204.320312 255.832031 204.214844 Z M 255.992188 185.894531 C 256.320312 185.894531 256.691406 184.621094 256.53125 182.523438 C 256.367188 180.464844 255.523438 177.5625 253.597656 174.929688 C 251.683594 172.304688 249.175781 170.628906 247.242188 169.855469 C 245.304688 169.039062 243.984375 169.03125 243.898438 169.347656 C 243.648438 170.015625 248.246094 171.828125 251.570312 176.421875 C 254.929688 180.972656 255.257812 185.894531 255.992188 185.894531 Z M 256.828125 191.957031 C 256.894531 190.597656 256.585938 188.699219 255.726562 186.8125 C 254.84375 184.9375 253.578125 183.472656 252.527344 182.648438 C 251.445312 181.824219 250.613281 181.566406 250.402344 181.824219 C 249.949219 182.390625 251.972656 184.628906 253.4375 187.875 C 254.960938 191.09375 255.359375 194.082031 256.078125 194.109375 C 256.414062 194.109375 256.769531 193.304688 256.828125 191.957031 Z M 275.003906 233.804688 C 275.136719 233.085938 272.015625 231.976562 268.460938 230.15625 C 264.898438 228.363281 262.152344 226.507812 261.652344 227.035156 C 261.183594 227.492188 263.386719 230.421875 267.320312 232.394531 C 271.257812 234.398438 274.914062 234.453125 275.003906 233.804688 Z M 272.722656 236.207031 C 275.421875 236.015625 277.023438 235.441406 276.984375 235.136719 C 276.90625 234.386719 270.414062 234.894531 263.023438 232.453125 C 255.589844 230.136719 250.613281 225.921875 250.113281 226.488281 C 249.894531 226.726562 250.871094 228.125 252.9375 229.859375 C 255.015625 231.589844 258.28125 233.574219 262.257812 234.867188 C 266.222656 236.132812 270.03125 236.417969 272.722656 236.207031 Z M 284.003906 235.507812 C 286.054688 235.441406 287.25 234.953125 287.222656 234.636719 C 287.144531 233.910156 282.394531 234.023438 277.445312 231.390625 C 272.4375 228.851562 269.800781 224.886719 269.179688 225.253906 C 268.890625 225.394531 269.179688 226.667969 270.300781 228.394531 C 271.421875 230.097656 273.480469 232.15625 276.277344 233.621094 C 279.089844 235.066406 281.953125 235.585938 284.003906 235.507812 Z M 297.429688 234.492188 C 297.488281 233.757812 292.601562 232.847656 287.203125 230.261719 C 281.78125 227.714844 277.980469 224.515625 277.464844 225.023438 C 277.234375 225.261719 277.894531 226.421875 279.386719 227.894531 C 280.871094 229.378906 283.21875 231.152344 286.128906 232.53125 C 289.039062 233.910156 291.902344 234.609375 293.992188 234.820312 C 296.089844 235.03125 297.382812 234.820312 297.429688 234.492188 Z M 300.390625 233.804688 C 300.703125 233.652344 300.703125 232.828125 300.253906 231.648438 C 299.824219 230.472656 298.914062 228.957031 297.535156 227.597656 C 296.15625 226.238281 294.625 225.339844 293.4375 224.925781 C 292.238281 224.503906 291.414062 224.503906 291.292969 224.820312 C 291.011719 225.492188 293.398438 227.015625 295.753906 229.390625 C 298.15625 231.726562 299.738281 234.070312 300.390625 233.804688 Z M 300.597656 215.292969 C 300.914062 215.253906 301.050781 213.875 300.503906 211.769531 C 299.988281 209.660156 298.683594 206.847656 296.445312 204.335938 C 294.222656 201.839844 291.570312 200.230469 289.539062 199.464844 C 287.507812 198.695312 286.128906 198.667969 286.042969 198.984375 C 285.8125 199.683594 290.601562 201.484375 294.574219 206.023438 C 298.625 210.484375 299.871094 215.445312 300.597656 215.292969 Z M 309.734375 234.789062 C 310.011719 234.636719 309.746094 233.335938 308.789062 231.457031 C 307.839844 229.550781 306.117188 227.140625 303.722656 224.925781 C 301.328125 222.722656 298.761719 221.210938 296.808594 220.40625 C 294.84375 219.601562 293.53125 219.4375 293.398438 219.734375 C 293.128906 220.425781 297.613281 222.667969 302.015625 226.773438 C 306.480469 230.84375 309.074219 235.117188 309.734375 234.789062 Z M 330.871094 238.8125 C 331.378906 239.988281 331.53125 241.648438 331.347656 241.980469 C 330.957031 242.222656 329.460938 242.125 328.820312 242.085938 C 328.390625 242.050781 327.996094 242.039062 327.652344 242.039062 L 156.398438 242.039062 C 154.410156 242.039062 152.40625 242.011719 150.40625 241.992188 C 146.441406 241.953125 142.332031 241.914062 138.28125 242.039062 C 133.0625 242.191406 127.785156 242.257812 122.222656 242.257812 C 114.636719 242.257812 106.515625 242.125 97.324219 241.828125 C 91.65625 226.476562 85.34375 211.15625 78.5625 196.265625 C 78.457031 196.042969 78.304688 195.84375 78.144531 195.679688 C 78.753906 195.222656 79.347656 194.75 79.933594 194.300781 C 81.253906 193.277344 82.539062 192.234375 83.839844 191.179688 C 88.101562 187.734375 92.496094 184.171875 97.34375 181.613281 C 98.710938 180.894531 100.542969 179.929688 101.71875 178.472656 C 102.78125 178.25 104.113281 177.964844 105.609375 177.859375 C 106.652344 177.753906 107.636719 177.753906 108.519531 177.773438 C 113.078125 178.605469 117.308594 178.625 120.316406 178.28125 C 123.4375 177.925781 125.277344 177.292969 125.238281 176.976562 C 125.144531 176.230469 117.597656 177.027344 108.59375 175.234375 C 102.859375 174.152344 98.050781 172.332031 95.238281 171.300781 C 95.027344 171.011719 94.851562 170.714844 94.765625 170.398438 C 94.480469 169.441406 94.644531 168.253906 95.304688 166.722656 C 97.773438 160.878906 103.566406 156.933594 107.722656 154.484375 C 110.148438 153.046875 113.414062 151.074219 114.160156 147.714844 C 115.019531 147.75 115.902344 147.820312 116.800781 147.886719 C 126.015625 148.640625 133.292969 150.816406 133.53125 150.117188 C 133.800781 149.523438 126.628906 146.171875 117.011719 145.375 C 109.851562 144.753906 103.777344 145.75 101.222656 146.574219 C 101.050781 146.601562 100.847656 146.621094 100.667969 146.648438 C 100.636719 146.660156 100.628906 146.679688 100.597656 146.679688 C 100.148438 145.960938 99.535156 145.269531 98.761719 144.628906 C 100.226562 144.660156 101.777344 144.554688 103.367188 144.121094 C 105.664062 143.507812 107.695312 142.285156 109.152344 140.867188 C 110.644531 139.457031 111.613281 137.859375 112.226562 136.46875 C 113.414062 133.625 113.097656 131.683594 112.800781 131.671875 C 112.40625 131.625 112.0625 133.378906 110.644531 135.648438 C 109.238281 137.886719 106.566406 140.683594 102.707031 141.691406 C 99.585938 142.523438 96.460938 142.207031 93.914062 141.832031 C 90.046875 140.292969 85.898438 139.832031 82.492188 139.640625 C 78.25 139.382812 72.78125 139.410156 68.125 141.804688 C 64.140625 143.855469 60.523438 148.335938 60.695312 153.285156 C 58.589844 153.957031 56.664062 155.144531 55.074219 156.675781 C 55.0625 156.648438 55.0625 156.636719 55.046875 156.621094 C 44.730469 144.113281 42.613281 126.082031 49.796875 111.753906 C 56.578125 98.242188 69.621094 87.375 86.542969 81.160156 C 102.726562 75.222656 121.226562 73.8125 140.0625 77.089844 C 140.808594 77.222656 141.585938 77.355469 142.378906 77.480469 C 147.496094 78.332031 153.296875 79.289062 157.273438 81.855469 C 160.257812 83.792969 163.503906 85.179688 166.648438 86.519531 C 168.734375 87.421875 170.898438 88.351562 172.910156 89.414062 C 182.800781 94.621094 192.75 101.917969 203.324219 111.695312 C 210.785156 118.59375 217.917969 126.109375 224.824219 133.378906 C 230.359375 139.199219 236.09375 145.242188 241.972656 150.949219 C 248.742188 157.519531 256.386719 164.300781 265.992188 172.316406 C 267.1875 173.320312 268.394531 174.304688 269.609375 175.292969 C 273.5 178.492188 277.519531 181.777344 281.140625 185.347656 C 283.726562 187.90625 286.800781 190.058594 289.777344 192.136719 C 292.019531 193.726562 294.15625 195.222656 296.089844 196.878906 C 305.636719 205.007812 314.140625 214.355469 321.378906 224.609375 C 323.945312 228.269531 326.339844 232.15625 328.371094 235.507812 C 328.792969 236.207031 329.320312 236.8125 329.769531 237.316406 C 330.238281 237.855469 330.679688 238.34375 330.871094 238.8125 " fill-opacity="1" fill-rule="nonzero"/><path fill="#000000" d="M 308.789062 231.457031 C 309.746094 233.335938 310.011719 234.636719 309.734375 234.789062 C 309.074219 235.117188 306.480469 230.84375 302.015625 226.773438 C 297.613281 222.667969 293.128906 220.425781 293.398438 219.734375 C 293.53125 219.4375 294.84375 219.601562 296.808594 220.40625 C 298.761719 221.210938 301.328125 222.722656 303.722656 224.925781 C 306.117188 227.140625 307.839844 229.550781 308.789062 231.457031 " fill-opacity="1" fill-rule="nonzero"/><path fill="#000000" d="M 300.503906 211.769531 C 301.050781 213.875 300.914062 215.253906 300.597656 215.292969 C 299.871094 215.445312 298.625 210.484375 294.574219 206.023438 C 290.601562 201.484375 285.8125 199.683594 286.042969 198.984375 C 286.128906 198.667969 287.507812 198.695312 289.539062 199.464844 C 291.570312 200.230469 294.222656 201.839844 296.445312 204.335938 C 298.683594 206.847656 299.988281 209.660156 300.503906 211.769531 " fill-opacity="1" fill-rule="nonzero"/><path fill="#000000" d="M 300.253906 231.648438 C 300.703125 232.828125 300.703125 233.652344 300.390625 233.804688 C 299.738281 234.070312 298.15625 231.726562 295.753906 229.390625 C 293.398438 227.015625 291.011719 225.492188 291.292969 224.820312 C 291.414062 224.503906 292.238281 224.503906 293.4375 224.925781 C 294.625 225.339844 296.15625 226.238281 297.535156 227.597656 C 298.914062 228.957031 299.824219 230.472656 300.253906 231.648438 " fill-opacity="1" fill-rule="nonzero"/><path fill="#000000" d="M 287.203125 230.261719 C 292.601562 232.847656 297.488281 233.757812 297.429688 234.492188 C 297.382812 234.820312 296.089844 235.03125 293.992188 234.820312 C 291.902344 234.609375 289.039062 233.910156 286.128906 232.53125 C 283.21875 231.152344 280.871094 229.378906 279.386719 227.894531 C 277.894531 226.421875 277.234375 225.261719 277.464844 225.023438 C 277.980469 224.515625 281.78125 227.714844 287.203125 230.261719 " fill-opacity="1" fill-rule="nonzero"/><path fill="#000000" d="M 287.222656 234.636719 C 287.25 234.953125 286.054688 235.441406 284.003906 235.507812 C 281.953125 235.585938 279.089844 235.066406 276.277344 233.621094 C 273.480469 232.15625 271.421875 230.097656 270.300781 228.394531 C 269.179688 226.667969 268.890625 225.394531 269.179688 225.253906 C 269.800781 224.886719 272.4375 228.851562 277.445312 231.390625 C 282.394531 234.023438 287.144531 233.910156 287.222656 234.636719 " fill-opacity="1" fill-rule="nonzero"/><path fill="#000000" d="M 276.984375 235.136719 C 277.023438 235.441406 275.421875 236.015625 272.722656 236.207031 C 270.03125 236.417969 266.222656 236.132812 262.257812 234.867188 C 258.28125 233.574219 255.015625 231.589844 252.9375 229.859375 C 250.871094 228.125 249.894531 226.726562 250.113281 226.488281 C 250.613281 225.921875 255.589844 230.136719 263.023438 232.453125 C 270.414062 234.894531 276.90625 234.386719 276.984375 235.136719 " fill-opacity="1" fill-rule="nonzero"/><path fill="#000000" d="M 268.460938 230.15625 C 272.015625 231.976562 275.136719 233.085938 275.003906 233.804688 C 274.914062 234.453125 271.257812 234.398438 267.320312 232.394531 C 263.386719 230.421875 261.183594 227.492188 261.652344 227.035156 C 262.152344 226.507812 264.898438 228.363281 268.460938 230.15625 " fill-opacity="1" fill-rule="nonzero"/><path fill="#000000" d="M 255.726562 186.8125 C 256.585938 188.699219 256.894531 190.597656 256.828125 191.957031 C 256.769531 193.304688 256.414062 194.109375 256.078125 194.109375 C 255.359375 194.082031 254.960938 191.09375 253.4375 187.875 C 251.972656 184.628906 249.949219 182.390625 250.402344 181.824219 C 250.613281 181.566406 251.445312 181.824219 252.527344 182.648438 C 253.578125 183.472656 254.84375 184.9375 255.726562 186.8125 " fill-opacity="1" fill-rule="nonzero"/><path fill="#000000" d="M 256.53125 182.523438 C 256.691406 184.621094 256.320312 185.894531 255.992188 185.894531 C 255.257812 185.894531 254.929688 180.972656 251.570312 176.421875 C 248.246094 171.828125 243.648438 170.015625 243.898438 169.347656 C 243.984375 169.03125 245.304688 169.039062 247.242188 169.855469 C 249.175781 170.628906 251.683594 172.304688 253.597656 174.929688 C 255.523438 177.5625 256.367188 180.464844 256.53125 182.523438 " fill-opacity="1" fill-rule="nonzero"/><path fill="#000000" d="M 255.917969 200.257812 C 256.347656 202.660156 256.15625 204.175781 255.832031 204.214844 C 255.09375 204.320312 254.125 198.601562 250.035156 193.066406 C 246.0625 187.464844 240.9375 184.753906 241.265625 184.09375 C 241.398438 183.796875 242.894531 184.082031 245.046875 185.242188 C 247.183594 186.402344 249.875 188.546875 252.097656 191.582031 C 254.289062 194.636719 255.484375 197.863281 255.917969 200.257812 " fill-opacity="1" fill-rule="nonzero"/><path fill="#000000" d="M 221.058594 153.230469 C 221.382812 156.167969 220.984375 158 220.648438 157.980469 C 220.273438 157.980469 220.035156 156.234375 219.304688 153.554688 C 218.578125 150.890625 217.199219 147.320312 214.785156 143.941406 C 212.375 140.570312 209.425781 138.097656 207.15625 136.546875 C 204.867188 134.976562 203.277344 134.183594 203.417969 133.835938 C 203.503906 133.519531 205.363281 133.730469 208.035156 135.003906 C 210.714844 136.261719 214.164062 138.730469 216.84375 142.476562 C 219.515625 146.21875 220.742188 150.28125 221.058594 153.230469 " fill-opacity="1" fill-rule="nonzero"/><path fill="#000000" d="M 207.652344 129.058594 C 210.324219 131.203125 211.578125 132.9375 211.367188 133.167969 C 211.101562 133.445312 209.441406 132.210938 206.628906 130.523438 C 205.238281 129.671875 203.523438 128.753906 201.582031 127.84375 C 199.597656 126.980469 197.40625 126.128906 195.03125 125.417969 C 192.65625 124.75 190.339844 124.300781 188.203125 124.003906 C 186.078125 123.742188 184.132812 123.601562 182.503906 123.582031 C 179.230469 123.523438 177.152344 123.6875 177.074219 123.3125 C 177.019531 123.015625 179.007812 122.210938 182.417969 121.800781 C 183.644531 121.65625 185.0625 121.578125 186.59375 121.628906 C 185.972656 121.351562 185.328125 121.089844 184.640625 120.8125 C 180.160156 119.070312 176.195312 118.4375 176.222656 117.71875 C 176.195312 117.050781 180.589844 116.542969 185.550781 118.46875 C 188.210938 119.480469 190.269531 120.910156 191.546875 122.085938 C 192.90625 122.316406 194.3125 122.59375 195.730469 122.996094 C 198.257812 123.734375 200.574219 124.71875 202.597656 125.765625 C 204.597656 126.847656 206.320312 127.96875 207.652344 129.058594 " fill-opacity="1" fill-rule="nonzero"/><path fill="#000000" d="M 210.699219 192.394531 C 210.859375 192.664062 209.394531 194.003906 206.570312 195.46875 C 203.9375 196.859375 200.039062 198.21875 195.558594 198.773438 C 194.523438 199.167969 193.328125 199.585938 191.945312 200 C 189.496094 200.746094 186.480469 201.386719 183.097656 201.828125 C 179.71875 202.210938 175.972656 202.375 172.039062 202.136719 C 168.113281 201.859375 164.394531 201.214844 161.09375 200.390625 C 157.808594 199.519531 154.90625 198.503906 152.570312 197.433594 C 147.878906 195.335938 145.328125 193.390625 145.472656 193.144531 C 145.664062 192.796875 148.488281 194.15625 153.222656 195.765625 C 155.578125 196.609375 158.429688 197.40625 161.628906 198.132812 C 164.847656 198.792969 168.417969 199.359375 172.199219 199.617188 C 175.984375 199.855469 179.585938 199.761719 182.878906 199.511719 C 184.753906 199.339844 186.527344 199.117188 188.15625 198.871094 C 185.914062 198.660156 183.894531 198.257812 182.292969 197.757812 C 179.238281 196.847656 177.554688 195.804688 177.660156 195.5 C 177.898438 194.78125 185.207031 197.308594 194.398438 196.371094 C 203.609375 195.574219 210.324219 191.734375 210.699219 192.394531 " fill-opacity="1" fill-rule="nonzero"/><path fill="#000000" d="M 204.617188 233.9375 C 204.625 234.253906 202.335938 234.65625 198.632812 234.214844 C 194.953125 233.8125 189.871094 232.414062 185.003906 229.378906 C 180.128906 226.34375 176.617188 222.398438 174.625 219.265625 C 172.621094 216.144531 171.960938 213.921875 172.25 213.789062 C 172.574219 213.609375 173.789062 215.503906 176.058594 218.214844 C 178.320312 220.933594 181.785156 224.410156 186.324219 227.234375 C 190.875 230.070312 195.519531 231.648438 198.949219 232.472656 C 202.386719 233.324219 204.617188 233.5625 204.617188 233.9375 " fill-opacity="1" fill-rule="nonzero"/><path fill="#000000" d="M 171.933594 223.460938 C 177.046875 227.914062 182.589844 229.3125 182.429688 230.050781 C 182.371094 230.367188 180.859375 230.441406 178.53125 229.828125 C 176.203125 229.21875 173.109375 227.78125 170.285156 225.367188 C 167.480469 222.964844 165.566406 220.121094 164.605469 217.925781 C 163.640625 215.714844 163.488281 214.21875 163.785156 214.097656 C 164.472656 213.828125 166.734375 219.09375 171.933594 223.460938 " fill-opacity="1" fill-rule="nonzero"/><path fill="#000000" d="M 157.867188 214.402344 C 161.285156 218.320312 164.65625 220.992188 164.28125 221.621094 C 163.945312 222.199219 159.695312 220.300781 155.96875 216.070312 C 152.234375 211.855469 150.882812 207.382812 151.496094 207.144531 C 152.15625 206.847656 154.398438 210.523438 157.867188 214.402344 " fill-opacity="1" fill-rule="nonzero"/><path fill="#000000" d="M 163.101562 116.515625 C 163.332031 117.585938 163.4375 119.214844 163.074219 121.175781 C 162.683594 123.132812 161.847656 125.4375 160.230469 127.574219 C 158.660156 129.730469 156.207031 131.703125 153.257812 132.734375 C 150.320312 133.78125 147.332031 133.894531 144.734375 133.597656 C 142.121094 133.273438 139.898438 132.535156 138.117188 131.777344 C 134.574219 130.21875 132.707031 128.742188 132.851562 128.457031 C 133.035156 128.109375 135.207031 129.039062 138.722656 130.101562 C 140.484375 130.609375 142.601562 131.117188 144.964844 131.28125 C 147.3125 131.433594 149.925781 131.25 152.40625 130.351562 C 154.90625 129.46875 156.9375 127.929688 158.402344 126.136719 C 159.886719 124.375 160.785156 122.433594 161.332031 120.757812 C 162.414062 117.335938 161.992188 114.972656 162.421875 114.914062 C 162.578125 114.886719 162.875 115.433594 163.101562 116.515625 " fill-opacity="1" fill-rule="nonzero"/><path fill="#000000" d="M 151.039062 123.074219 C 154.273438 120.546875 156.226562 116.167969 156.113281 111.648438 C 156.027344 107.992188 154.695312 104.34375 152.15625 100.800781 C 149.621094 97.257812 143.875 96.328125 142.167969 96.136719 C 141.632812 96.058594 141.105469 96.03125 140.589844 96.03125 C 137.640625 96.03125 134.976562 97.035156 133.246094 98.816406 C 131.675781 100.425781 130.707031 102.894531 130.523438 105.730469 C 130.363281 108.441406 130.871094 111.246094 131.40625 113.910156 C 131.886719 116.246094 132.390625 118.496094 133.378906 120.546875 C 134.097656 122.058594 135.410156 124.089844 137.535156 125.179688 C 139.164062 126.003906 141.261719 126.253906 143.742188 125.945312 C 146.566406 125.574219 149.09375 124.585938 151.039062 123.074219 Z M 159.109375 111.582031 C 159.246094 117.019531 156.851562 122.328125 152.855469 125.417969 C 150.511719 127.257812 147.496094 128.472656 144.125 128.90625 C 143.308594 129.011719 142.515625 129.066406 141.769531 129.066406 C 139.660156 129.066406 137.792969 128.648438 136.195312 127.84375 C 133.300781 126.378906 131.597656 123.761719 130.667969 121.839844 C 129.558594 119.480469 128.972656 116.933594 128.476562 114.511719 C 127.890625 111.648438 127.335938 108.621094 127.546875 105.539062 C 127.777344 101.976562 129.03125 98.855469 131.109375 96.738281 C 133.769531 93.972656 138.042969 92.640625 142.515625 93.15625 C 144.515625 93.398438 151.335938 94.527344 154.582031 99.054688 C 157.472656 103.105469 159.003906 107.320312 159.109375 111.582031 " fill-opacity="1" fill-rule="nonzero"/><path fill="#eda400" d="M 148.664062 115.46875 C 148.96875 114.140625 148.960938 112.742188 148.890625 111.371094 C 148.785156 108.726562 147.820312 105.703125 144.679688 105.644531 C 141.988281 105.585938 139.078125 106.496094 137.535156 108.863281 C 136.050781 111.132812 136.023438 114.195312 137.140625 116.675781 C 137.660156 117.796875 138.433594 118.859375 139.527344 119.445312 C 140.523438 119.980469 141.710938 120.066406 142.839844 120.007812 C 144.140625 119.953125 145.503906 119.683594 146.566406 118.898438 C 147.667969 118.09375 148.347656 116.8125 148.664062 115.46875 Z M 156.113281 111.648438 C 156.226562 116.167969 154.273438 120.546875 151.039062 123.074219 C 149.09375 124.585938 146.566406 125.574219 143.742188 125.945312 C 141.261719 126.253906 139.164062 126.003906 137.535156 125.179688 C 135.410156 124.089844 134.097656 122.058594 133.378906 120.546875 C 132.390625 118.496094 131.886719 116.246094 131.40625 113.910156 C 130.871094 111.246094 130.363281 108.441406 130.523438 105.730469 C 130.707031 102.894531 131.675781 100.425781 133.246094 98.816406 C 134.976562 97.035156 137.640625 96.03125 140.589844 96.03125 C 141.105469 96.03125 141.632812 96.058594 142.167969 96.136719 C 143.875 96.328125 149.621094 97.257812 152.15625 100.800781 C 154.695312 104.34375 156.027344 107.992188 156.113281 111.648438 " fill-opacity="1" fill-rule="nonzero"/><path fill="#000000" d="M 148.890625 111.371094 C 148.960938 112.742188 148.96875 114.140625 148.664062 115.46875 C 148.347656 116.8125 147.667969 118.09375 146.566406 118.898438 C 145.503906 119.683594 144.140625 119.953125 142.839844 120.007812 C 141.710938 120.066406 140.523438 119.980469 139.527344 119.445312 C 138.433594 118.859375 137.660156 117.796875 137.140625 116.675781 C 136.023438 114.195312 136.050781 111.132812 137.535156 108.863281 C 139.078125 106.496094 141.988281 105.585938 144.679688 105.644531 C 147.820312 105.703125 148.785156 108.726562 148.890625 111.371094 " fill-opacity="1" fill-rule="nonzero"/><path fill="#000000" d="M 138.625 89.171875 C 138.605469 89.585938 136.308594 89.421875 133.339844 91.070312 C 131.867188 91.894531 130.285156 93.15625 128.984375 94.910156 C 127.671875 96.664062 126.695312 98.949219 126.175781 101.46875 C 125.144531 106.582031 126.101562 111.449219 126.800781 114.894531 C 127.546875 118.382812 128.054688 120.59375 127.699219 120.699219 C 127.402344 120.804688 126.3125 118.832031 125.085938 115.375 C 124.484375 113.640625 123.890625 111.515625 123.535156 109.0625 C 123.179688 106.632812 123.140625 103.835938 123.707031 100.960938 C 124.289062 98.109375 125.488281 95.476562 127.144531 93.472656 C 128.800781 91.492188 130.792969 90.167969 132.574219 89.453125 C 134.382812 88.734375 135.964844 88.589844 137.027344 88.675781 C 138.070312 88.769531 138.625 89.019531 138.625 89.171875 " fill-opacity="1" fill-rule="nonzero"/><path fill="#000000" d="M 126.628906 204.769531 C 126.664062 205.105469 125.335938 205.59375 123.085938 205.804688 C 120.832031 206.023438 117.683594 205.90625 114.339844 205.085938 C 113.117188 204.789062 111.976562 204.425781 110.914062 204.023438 C 110.308594 204.183594 109.535156 204.335938 108.605469 204.441406 C 106.21875 204.691406 102.8125 204.453125 99.316406 203.21875 C 95.832031 201.972656 93.015625 200.019531 91.328125 198.3125 C 89.625 196.609375 88.933594 195.257812 89.175781 195.046875 C 89.730469 194.542969 93.734375 198.640625 100.160156 200.84375 C 102.925781 201.859375 105.570312 202.308594 107.6875 202.546875 C 107.148438 202.257812 106.652344 201.972656 106.21875 201.695312 C 104.332031 200.46875 103.367188 199.414062 103.558594 199.148438 C 103.960938 198.523438 108.644531 201.140625 114.914062 202.632812 C 121.199219 204.203125 126.550781 204.039062 126.628906 204.769531 " fill-opacity="1" fill-rule="nonzero"/><path fill="#000000" d="M 123.964844 127.441406 C 123.976562 129.394531 123.496094 131.136719 122.921875 132.265625 C 122.316406 133.40625 121.695312 133.960938 121.390625 133.808594 C 120.746094 133.492188 121.515625 130.773438 121.4375 127.460938 C 121.445312 124.136719 120.640625 121.425781 121.273438 121.101562 C 121.589844 120.949219 122.210938 121.492188 122.824219 122.625 C 123.429688 123.734375 123.945312 125.476562 123.964844 127.441406 " fill-opacity="1" fill-rule="nonzero"/><path fill="#000000" d="M 117.308594 118.898438 C 118.429688 120.515625 119.503906 123.226562 119.4375 126.347656 C 119.367188 129.46875 118.179688 132.132812 116.984375 133.703125 C 115.769531 135.300781 114.667969 135.914062 114.425781 135.695312 C 114.160156 135.4375 114.753906 134.441406 115.441406 132.804688 C 116.132812 131.195312 116.859375 128.886719 116.917969 126.300781 C 116.964844 123.707031 116.34375 121.367188 115.730469 119.722656 C 115.117188 118.085938 114.5625 117.050781 114.847656 116.8125 C 115.078125 116.601562 116.179688 117.261719 117.308594 118.898438 " fill-opacity="1" fill-rule="nonzero"/><path fill="#b3b3b3" d="M 110.480469 148.652344 C 109.449219 149.984375 107.695312 151.015625 106.203125 151.90625 C 101.691406 154.589844 95.371094 158.90625 92.554688 165.542969 C 91.605469 167.746094 91.40625 169.613281 91.894531 171.25 C 92.449219 173.109375 93.960938 174.707031 96.039062 175.648438 C 97.132812 176.144531 98.28125 176.441406 99.382812 176.632812 C 98.664062 177.484375 97.402344 178.203125 95.945312 178.96875 C 90.832031 181.660156 86.320312 185.320312 81.953125 188.863281 C 80.671875 189.898438 79.398438 190.941406 78.09375 191.957031 C 75.980469 193.601562 73.671875 195.296875 71.210938 196.820312 C 67.972656 198.027344 64.871094 199.378906 61.863281 200.738281 C 63.328125 191.332031 68.785156 182.65625 76.667969 177.324219 C 77.847656 176.527344 79.121094 175.78125 80.34375 175.054688 C 82.328125 173.886719 84.386719 172.660156 86.246094 171.136719 C 88.148438 169.59375 91.136719 166.589844 91.921875 162.507812 C 92.6875 162.5 93.332031 161.886719 93.378906 161.089844 C 93.378906 161.089844 93.378906 161.070312 93.378906 161.0625 C 95.667969 160.046875 97.402344 157.921875 98.875 155.921875 C 99.929688 154.492188 101.613281 152.195312 101.5 149.550781 C 104.449219 149.074219 107.476562 148.757812 110.480469 148.652344 " fill-opacity="1" fill-rule="nonzero"/><path fill="#fffef8" d="M 98.503906 149.445312 C 98.730469 150.949219 97.621094 152.597656 96.480469 154.140625 C 94.851562 156.332031 93.082031 158.503906 90.820312 158.695312 C 89.355469 158.832031 87.863281 158.132812 86.273438 157.386719 L 85.390625 156.984375 C 82.019531 155.441406 78.410156 154.558594 74.703125 154.347656 C 70.769531 154.121094 67.511719 154.800781 65.003906 156.371094 C 61.699219 158.410156 59.863281 161.789062 58.0625 165.054688 C 56.902344 167.171875 55.78125 169.203125 54.316406 170.8125 C 53.914062 169.117188 53.753906 167.304688 53.847656 165.457031 C 54.078125 163.726562 54.699219 162.03125 55.6875 160.566406 C 57.285156 158.191406 59.8125 156.464844 62.628906 155.851562 C 63.414062 155.679688 63.914062 154.933594 63.777344 154.140625 C 63.058594 150.089844 66.113281 146.199219 69.484375 144.46875 C 73.480469 142.417969 78.21875 142.390625 82.316406 142.628906 C 86.445312 142.867188 91.691406 143.480469 95.832031 146.152344 C 96.929688 146.871094 98.300781 148.039062 98.503906 149.445312 " fill-opacity="1" fill-rule="nonzero"/><path fill="#b3b3b3" d="M 86.445312 163.226562 C 87.230469 163.09375 88.015625 162.929688 88.792969 162.71875 C 88.148438 164.855469 86.609375 166.992188 84.367188 168.820312 C 82.671875 170.199219 80.796875 171.320312 78.8125 172.476562 C 77.550781 173.222656 76.246094 174.007812 74.992188 174.84375 C 66.441406 180.644531 60.523438 190.050781 58.921875 200.257812 C 53.820312 193.066406 51.933594 183.664062 53.925781 175.0625 C 53.925781 175.0625 53.945312 175.0625 53.953125 175.054688 C 57.140625 172.976562 58.953125 169.671875 60.683594 166.484375 C 62.359375 163.4375 63.941406 160.535156 66.59375 158.90625 C 68.566406 157.664062 71.246094 157.144531 74.542969 157.335938 C 77.875 157.519531 81.121094 158.324219 84.167969 159.703125 L 85 160.085938 C 85.171875 160.164062 85.34375 160.25 85.515625 160.324219 C 83.820312 160.566406 82.078125 160.640625 80.355469 160.71875 L 79.320312 160.765625 C 75.230469 160.957031 70.949219 161.464844 67.609375 163.886719 C 67.035156 164.300781 66.21875 164.960938 65.75 165.9375 C 65.1875 167.113281 65.300781 168.503906 66.039062 169.441406 C 66.613281 170.160156 67.992188 171.222656 70.882812 170.207031 C 73.421875 169.296875 75.824219 168.054688 78.160156 166.855469 C 79.253906 166.292969 80.34375 165.726562 81.445312 165.191406 C 83.285156 164.320312 84.914062 163.65625 86.445312 163.226562 " fill-opacity="1" fill-rule="nonzero"/><g fill="#000000" fill-opacity="1"><g transform="translate(92.691999, 291.948626)"><g><path d="M 31.363281 7.734375 C 29.085938 8.230469 27.144531 8.535156 25.539062 8.652344 C 23.933594 8.769531 22.515625 8.765625 21.277344 8.632812 C 20.039062 8.5 18.839844 8.3125 17.667969 8.0625 C 16.5 7.8125 15.234375 7.5625 13.863281 7.3125 C 12.496094 7.0625 10.878906 6.871094 9.015625 6.742188 C 7.152344 6.609375 4.886719 6.625 2.214844 6.78125 L 2.214844 0.246094 C 3.128906 0.3125 4.230469 0.335938 5.519531 0.320312 C 6.8125 0.304688 8.191406 0.238281 9.667969 0.125 C 11.140625 0.0078125 12.601562 -0.148438 14.042969 -0.34375 C 15.488281 -0.542969 16.808594 -0.789062 18.007812 -1.089844 C 19.207031 -1.386719 20.167969 -1.738281 20.898438 -2.136719 L 20.898438 -2.496094 C 18.277344 -1.761719 15.9375 -1.429688 13.871094 -1.503906 C 11.804688 -1.578125 9.992188 -1.988281 8.429688 -2.738281 C 6.871094 -3.488281 5.578125 -4.527344 4.550781 -5.851562 C 3.527344 -7.179688 2.761719 -8.730469 2.253906 -10.503906 C 1.75 -12.277344 1.496094 -14.230469 1.496094 -16.359375 C 1.496094 -18.835938 1.816406 -21.101562 2.460938 -23.15625 C 3.105469 -25.210938 4.058594 -26.984375 5.324219 -28.484375 C 6.585938 -29.980469 8.171875 -31.144531 10.074219 -31.96875 C 11.976562 -32.796875 14.195312 -33.210938 16.722656 -33.210938 C 19.898438 -33.210938 22.601562 -32.550781 24.820312 -31.230469 C 27.042969 -29.910156 28.730469 -27.996094 29.882812 -25.484375 C 31.035156 -22.976562 31.609375 -19.953125 31.609375 -16.417969 C 31.609375 -13.265625 31.167969 -10.632812 30.28125 -8.527344 C 29.394531 -6.421875 28.175781 -4.714844 26.628906 -3.398438 C 25.082031 -2.085938 23.289062 -1.089844 21.25 -0.410156 C 19.210938 0.269531 17.027344 0.757812 14.699219 1.054688 L 14.738281 1.460938 C 16.652344 1.738281 18.355469 1.964844 19.84375 2.136719 C 21.335938 2.308594 22.714844 2.394531 23.984375 2.394531 C 25.25 2.394531 26.480469 2.296875 27.671875 2.105469 C 28.867188 1.914062 30.097656 1.582031 31.363281 1.109375 Z M 16.691406 -5.390625 C 17.945312 -5.390625 19.070312 -5.707031 20.066406 -6.347656 C 21.0625 -6.984375 21.859375 -8.070312 22.453125 -9.601562 C 23.050781 -11.128906 23.347656 -13.210938 23.347656 -15.835938 C 23.347656 -18.367188 23.085938 -20.429688 22.566406 -22.027344 C 22.042969 -23.625 21.273438 -24.808594 20.253906 -25.578125 C 19.234375 -26.347656 17.976562 -26.734375 16.476562 -26.734375 C 15.28125 -26.734375 14.175781 -26.40625 13.164062 -25.746094 C 12.152344 -25.089844 11.339844 -23.992188 10.726562 -22.457031 C 10.113281 -20.917969 9.808594 -18.820312 9.808594 -16.164062 C 9.808594 -13.476562 10.101562 -11.34375 10.691406 -9.761719 C 11.277344 -8.183594 12.097656 -7.058594 13.144531 -6.390625 C 14.195312 -5.722656 15.375 -5.390625 16.691406 -5.390625 Z M 16.691406 -5.390625 "/></g></g></g><g fill="#000000" fill-opacity="1"><g transform="translate(125.804208, 291.948626)"><g><path d="M 2.246094 0 L 2.246094 -32.523438 L 15.8125 -32.523438 C 17.324219 -32.523438 18.746094 -32.394531 20.078125 -32.144531 C 21.410156 -31.890625 22.617188 -31.511719 23.695312 -31.011719 C 24.773438 -30.507812 25.710938 -29.878906 26.496094 -29.121094 C 27.285156 -28.363281 27.890625 -27.46875 28.3125 -26.4375 C 28.734375 -25.410156 28.941406 -24.25 28.941406 -22.953125 C 28.941406 -21.910156 28.769531 -20.933594 28.421875 -20.027344 C 28.074219 -19.121094 27.53125 -18.3125 26.789062 -17.59375 C 26.050781 -16.878906 25.105469 -16.285156 23.949219 -15.820312 C 22.796875 -15.351562 21.425781 -15.019531 19.84375 -14.824219 L 19.84375 -14.363281 C 21.894531 -14.246094 23.484375 -13.835938 24.613281 -13.128906 C 25.742188 -12.417969 26.59375 -11.519531 27.164062 -10.429688 C 27.738281 -9.339844 28.183594 -8.132812 28.503906 -6.816406 L 30.253906 0 L 21.433594 0 L 20.167969 -6.363281 C 19.949219 -7.515625 19.628906 -8.441406 19.199219 -9.136719 C 18.769531 -9.832031 18.175781 -10.339844 17.414062 -10.660156 C 16.652344 -10.980469 15.652344 -11.140625 14.417969 -11.140625 L 10.21875 -11.140625 L 10.21875 0 Z M 10.21875 -17.242188 L 14.988281 -17.242188 C 16.832031 -17.242188 18.246094 -17.597656 19.230469 -18.304688 C 20.214844 -19.015625 20.703125 -20.097656 20.703125 -21.5625 C 20.703125 -23.125 20.25 -24.285156 19.335938 -25.046875 C 18.425781 -25.808594 17.042969 -26.191406 15.1875 -26.191406 L 10.21875 -26.191406 Z M 10.21875 -17.242188 "/></g></g></g><g fill="#000000" fill-opacity="1"><g transform="translate(156.797628, 291.948626)"><g/></g></g><g fill="#000000" fill-opacity="1"><g transform="translate(166.99737, 291.948626)"><g><path d="M 8.179688 -9.160156 L 8.179688 -15.511719 L 14.464844 -15.511719 C 16.492188 -15.511719 18.003906 -15.921875 19 -16.738281 C 20 -17.558594 20.5 -18.929688 20.5 -20.84375 C 20.5 -22.628906 20.039062 -23.964844 19.125 -24.851562 C 18.210938 -25.738281 16.808594 -26.179688 14.917969 -26.179688 L 8.179688 -26.179688 L 8.179688 -32.523438 L 15.324219 -32.523438 C 17.242188 -32.523438 19.011719 -32.296875 20.636719 -31.84375 C 22.261719 -31.390625 23.675781 -30.6875 24.878906 -29.730469 C 26.078125 -28.773438 27.015625 -27.570312 27.679688 -26.113281 C 28.347656 -24.660156 28.683594 -22.917969 28.683594 -20.886719 C 28.683594 -18.296875 28.097656 -16.132812 26.933594 -14.390625 C 25.765625 -12.648438 24.074219 -11.34375 21.859375 -10.46875 C 19.644531 -9.597656 16.917969 -9.160156 13.691406 -9.160156 Z M 2.246094 0 L 2.246094 -32.523438 L 10.21875 -32.523438 L 10.21875 0 Z M 2.246094 0 "/></g></g></g><g fill="#000000" fill-opacity="1"><g transform="translate(196.512564, 291.948626)"><g><path d="M 2.246094 -32.523438 L 10.289062 -32.523438 L 10.289062 0 L 2.246094 0 Z M 2.246094 -32.523438 "/></g></g></g><g fill="#000000" fill-opacity="1"><g transform="translate(209.028187, 291.948626)"><g><path d="M 15.117188 0.691406 C 12.324219 0.691406 9.90625 0.00390625 7.863281 -1.375 C 5.820312 -2.75 4.25 -4.6875 3.148438 -7.1875 C 2.046875 -9.691406 1.496094 -12.621094 1.496094 -15.988281 C 1.496094 -18.472656 1.808594 -20.761719 2.4375 -22.859375 C 3.070312 -24.953125 4.035156 -26.773438 5.339844 -28.324219 C 6.648438 -29.871094 8.292969 -31.074219 10.28125 -31.929688 C 12.265625 -32.785156 14.621094 -33.210938 17.339844 -33.210938 C 19.589844 -33.210938 21.546875 -32.914062 23.203125 -32.320312 C 24.863281 -31.726562 26.234375 -30.898438 27.316406 -29.832031 C 28.398438 -28.769531 29.175781 -27.53125 29.648438 -26.121094 C 30.121094 -24.710938 30.292969 -23.1875 30.164062 -21.550781 L 22.714844 -20.386719 C 22.761719 -21.816406 22.558594 -22.988281 22.101562 -23.902344 C 21.644531 -24.816406 20.980469 -25.503906 20.117188 -25.960938 C 19.25 -26.417969 18.222656 -26.644531 17.035156 -26.644531 C 15.566406 -26.644531 14.296875 -26.265625 13.21875 -25.507812 C 12.144531 -24.75 11.316406 -23.609375 10.734375 -22.085938 C 10.152344 -20.5625 9.863281 -18.65625 9.863281 -16.371094 C 9.863281 -14.679688 10.03125 -13.164062 10.359375 -11.835938 C 10.691406 -10.503906 11.191406 -9.390625 11.851562 -8.488281 C 12.515625 -7.589844 13.335938 -6.902344 14.316406 -6.433594 C 15.292969 -5.964844 16.417969 -5.726562 17.691406 -5.726562 C 18.964844 -5.726562 20.054688 -5.949219 20.964844 -6.390625 C 21.871094 -6.828125 22.574219 -7.445312 23.074219 -8.238281 C 23.570312 -9.035156 23.820312 -9.972656 23.828125 -11.058594 L 18.585938 -11.058594 L 18.585938 -16.675781 L 31.070312 -16.675781 L 31.070312 0 L 25.621094 0 L 25.59375 -8.652344 L 25.046875 -8.652344 C 24.808594 -6.640625 24.28125 -4.9375 23.460938 -3.542969 C 22.640625 -2.148438 21.535156 -1.09375 20.140625 -0.378906 C 18.75 0.332031 17.074219 0.691406 15.117188 0.691406 Z M 15.117188 0.691406 "/></g></g></g><g fill="#000000" fill-opacity="1"><g transform="translate(241.746194, 291.948626)"><g><path d="M 2.246094 0 L 2.246094 -32.523438 L 10.230469 -32.523438 L 10.230469 0 Z M 8.171875 0 L 8.171875 -6.605469 L 25.992188 -6.605469 L 25.992188 0 Z M 8.171875 -13.421875 L 8.171875 -19.347656 L 23.679688 -19.347656 L 23.679688 -13.421875 Z M 8.171875 -25.925781 L 8.171875 -32.523438 L 25.964844 -32.523438 L 25.964844 -25.925781 Z M 8.171875 -25.925781 "/></g></g></g><g fill="#000000" fill-opacity="1"><g transform="translate(269.241149, 291.948626)"><g><path d="M 16.464844 0.691406 C 14.152344 0.691406 12.070312 0.328125 10.21875 -0.394531 C 8.367188 -1.117188 6.792969 -2.183594 5.496094 -3.597656 C 4.203125 -5.007812 3.210938 -6.765625 2.523438 -8.863281 C 1.839844 -10.964844 1.496094 -13.378906 1.496094 -16.113281 C 1.496094 -19.988281 2.140625 -23.183594 3.425781 -25.695312 C 4.710938 -28.210938 6.507812 -30.089844 8.8125 -31.339844 C 11.117188 -32.585938 13.765625 -33.210938 16.761719 -33.210938 C 19.066406 -33.210938 21.140625 -32.855469 22.976562 -32.148438 C 24.816406 -31.4375 26.382812 -30.378906 27.679688 -28.964844 C 28.976562 -27.550781 29.96875 -25.785156 30.652344 -23.667969 C 31.339844 -21.546875 31.683594 -19.097656 31.683594 -16.308594 C 31.683594 -13.480469 31.324219 -10.996094 30.605469 -8.863281 C 29.886719 -6.734375 28.855469 -4.960938 27.511719 -3.546875 C 26.167969 -2.136719 24.5625 -1.074219 22.691406 -0.371094 C 20.820312 0.335938 18.746094 0.691406 16.464844 0.691406 Z M 16.753906 -5.800781 C 18.253906 -5.800781 19.503906 -6.175781 20.496094 -6.925781 C 21.488281 -7.675781 22.234375 -8.804688 22.730469 -10.304688 C 23.222656 -11.804688 23.472656 -13.683594 23.472656 -15.9375 C 23.472656 -18.324219 23.207031 -20.308594 22.683594 -21.894531 C 22.160156 -23.480469 21.382812 -24.679688 20.359375 -25.492188 C 19.332031 -26.300781 18.050781 -26.707031 16.515625 -26.707031 C 15.042969 -26.707031 13.804688 -26.316406 12.792969 -25.539062 C 11.785156 -24.761719 11.023438 -23.597656 10.511719 -22.050781 C 10.003906 -20.503906 9.746094 -18.585938 9.746094 -16.292969 C 9.746094 -14.558594 9.890625 -13.03125 10.183594 -11.714844 C 10.476562 -10.398438 10.914062 -9.300781 11.5 -8.421875 C 12.089844 -7.546875 12.820312 -6.890625 13.695312 -6.453125 C 14.570312 -6.015625 15.589844 -5.800781 16.753906 -5.800781 Z M 16.753906 -5.800781 "/></g></g></g><g fill="#000000" fill-opacity="1"><g transform="translate(302.402637, 291.948626)"><g><path d="M 2.246094 0 L 2.246094 -32.523438 L 12.867188 -32.523438 L 24.894531 -10.53125 L 25.085938 -10.53125 L 24.996094 -32.523438 L 32.851562 -32.523438 L 32.851562 0 L 22.9375 0 L 10.203125 -22.820312 L 10.011719 -22.820312 L 10.101562 0 Z M 2.246094 0 "/></g></g></g></svg>